<svg width="216" height="29" viewBox="0 0 216 29" fill="none" xmlns="http://www.w3.org/2000/svg">
<path fill-rule="evenodd" clip-rule="evenodd" d="M90.2985 20.599C84.1126 20.599 79.6138 16.3478 79.6138 10.5024C79.6138 4.65698 84.1126 0.405762 90.3789 0.405762C93.753 0.405762 96.6451 1.62039 98.4929 3.89783L98.6535 4.12557L95.3597 7.16215L95.1187 6.93441C93.9137 5.49203 92.307 4.8088 90.5396 4.8088C87.0851 4.8088 84.675 7.16215 84.675 10.5783C84.675 13.9945 87.0851 16.3478 90.5396 16.3478C92.3873 16.3478 93.9137 15.6646 95.1187 14.2222L95.3597 13.9945L98.6535 17.031L98.4929 17.2588C96.6451 19.5362 93.753 20.7509 90.2985 20.7509V20.599ZM42.8995 20.2954H32.6968V0.709473H42.4175C47.1574 0.709473 49.9691 2.68325 49.9691 5.94757C49.9691 7.69361 49.1658 9.13598 47.8 10.047C49.8085 10.882 50.9332 12.6281 50.9332 14.8296C50.9332 18.3216 48.1214 20.2954 42.9799 20.2954H42.8995ZM37.6776 16.4238H42.5782C45.4703 16.4238 45.7916 15.2851 45.7916 14.3741C45.7916 13.0076 44.7473 12.3244 42.5782 12.3244H37.6776V16.4238ZM37.6776 8.52867H41.7748C43.7832 8.52867 44.8276 7.84544 44.8276 6.55489C44.8276 6.0994 44.8276 4.65703 41.7748 4.65703H37.6776V8.52867ZM58.8063 20.2954H53.7451V0.709473H58.8063V20.2954ZM67.6434 20.2954H72.6243V4.88477H78.8102V0.709473H61.4575V4.88477H67.6434V20.2954ZM99.3765 10.5024C99.3765 16.3478 103.956 20.599 110.222 20.599C116.488 20.599 121.067 16.3478 121.067 10.5024C121.067 4.65698 116.488 0.405762 110.222 0.405762C103.956 0.405762 99.3765 4.65698 99.3765 10.5024ZM104.518 10.5024C104.518 7.16215 106.928 4.73289 110.222 4.73289C113.516 4.73289 115.926 7.16215 115.926 10.5024C115.926 13.8426 113.516 16.2719 110.222 16.2719C106.928 16.2719 104.518 13.8426 104.518 10.5024ZM128.538 20.2954H123.477V0.709473H128.538V20.2954ZM145.811 20.2954H149.908V0.709473H144.927V11.6412L135.849 0.709473H131.752V20.2954H136.733V9.36373L145.811 20.2954ZM157.781 20.2954H152.72V0.709473H157.781V20.2954ZM160.432 18.3216C162.28 19.6881 165.413 20.599 168.466 20.599V20.6749C174.652 20.6749 176.901 17.3347 176.901 14.5259C176.901 10.3119 172.954 9.37988 169.755 8.62451L169.671 8.60453C167.582 8.14904 165.734 7.69356 165.734 6.47892C165.734 5.26429 166.939 4.58106 169.108 4.58106C170.796 4.58106 172.563 5.11246 174.25 6.02344L174.571 6.17527L176.178 2.30362L175.937 2.1518C174.17 1.01308 171.679 0.405762 169.108 0.405762C163.967 0.405762 160.673 2.83503 160.753 6.55484C160.753 10.8447 164.702 11.777 167.901 12.5325L167.984 12.5521C170.073 13.0076 171.92 13.4631 171.92 14.6777C171.92 16.196 169.832 16.4237 168.546 16.4237C166.377 16.4237 163.967 15.7405 162.36 14.5259L162.039 14.2981L160.271 18.1698L160.432 18.3216ZM189.273 20.2954H184.292V4.88477H178.106V0.709473H195.459V4.88477H189.273V20.2954ZM197.708 4.42908C197.708 4.80865 198.431 5.11231 198.431 5.11231C198.833 5.11231 199.154 4.80865 199.154 4.42908C199.154 4.04951 198.833 3.74585 198.431 3.74585C198.029 3.74585 197.708 4.04951 197.708 4.42908ZM202.448 5.11251C201.002 5.11251 200.038 4.20154 200.038 2.91099C200.038 1.62045 201.082 0.709473 202.448 0.709473C203.252 0.709473 203.894 1.01313 204.296 1.46862L203.493 2.22776C203.493 2.22776 202.85 1.69636 202.529 1.69636C201.805 1.69636 201.243 2.22776 201.243 2.91099C201.243 3.59422 201.805 4.12563 202.529 4.12563C202.93 4.12563 203.252 3.9738 203.493 3.67014L204.296 4.27745C203.894 4.80886 203.252 5.11251 202.448 5.11251ZM204.697 2.91099C204.697 4.20154 205.742 5.11251 207.188 5.11251C208.634 5.11251 209.678 4.20154 209.678 2.91099C209.678 1.62045 208.634 0.709473 207.188 0.709473C205.742 0.709473 204.697 1.62045 204.697 2.91099ZM205.983 2.91099C205.983 2.22776 206.465 1.69636 207.188 1.69636C207.991 1.69636 208.473 2.22776 208.473 2.91099C208.473 3.59422 207.911 4.12563 207.188 4.12563C206.465 4.12563 205.983 3.59422 205.983 2.91099ZM210.482 4.8848V0.861328V0.7854H211.446L212.972 3.21466L214.499 0.7854H215.463V5.03661H214.418V2.83509L213.294 4.58113H212.731L211.607 2.91101V5.03661H210.482V4.8848ZM32.1348 26.2166C32.1348 26.1907 32.1351 26.165 32.1358 26.1394C32.1766 27.5437 33.3663 28.57 34.8662 28.57C35.6696 28.57 36.3123 28.3422 36.7943 27.8867L36.4729 27.5831C36.0713 28.0386 35.5089 28.1904 34.9465 28.1904C33.7415 28.1904 32.7775 27.3553 32.7775 26.1407C32.7775 24.9261 33.6612 24.091 34.9465 24.091C35.5089 24.091 36.0713 24.3187 36.4729 24.6983L36.7943 24.3947C36.3123 23.9392 35.5892 23.7114 34.8662 23.7114C33.2883 23.7114 32.1752 24.7365 32.1358 26.1394C32.1351 26.1146 32.1348 26.0898 32.1348 26.0648V26.2166ZM40.2487 27.0517L41.4538 28.6459V28.57H42.0161L40.7307 26.8998C41.5341 26.6721 41.9358 26.1407 41.9358 25.3815C41.9358 24.3187 41.1324 23.7114 39.847 23.7114H37.9189V28.57H38.4813V27.0517H39.847H40.2487ZM39.847 24.2428C40.8914 24.2428 41.4538 24.6983 41.4538 25.4575C41.4538 26.2166 40.8914 26.6721 39.847 26.6721H38.4813V24.2428H39.847ZM44.9885 26.9758V28.6459H44.4262V26.9758L42.3374 23.7874H42.8998L44.6672 26.5203L46.4346 23.7874H46.9969L44.9082 26.9758H44.9885ZM49.8084 27.1276C51.0938 27.1276 51.8972 26.5203 51.8972 25.4575C51.8972 24.3947 51.0938 23.7874 49.8084 23.7874H47.8804V28.6459H48.4427V27.1276H49.8084ZM49.7281 24.2428C50.7725 24.2428 51.3348 24.6983 51.3348 25.4575C51.3348 26.2166 50.7725 26.6721 49.7281 26.6721H48.3624V24.2428H49.7281ZM53.8255 24.2428H52.0581V23.7874H56.2356V24.2428H54.3879V28.6459H53.8255V24.2428ZM59.3686 23.7114C57.7619 23.7114 56.6372 24.7742 56.6372 26.2166C56.6372 27.659 57.7619 28.7218 59.3686 28.7218C60.9754 28.7218 62.1001 27.659 62.1001 26.2166C62.1001 24.7742 60.9754 23.7114 59.3686 23.7114ZM59.3686 24.1669C60.654 24.1669 61.5377 25.0779 61.5377 26.2166C61.5377 27.4312 60.5737 28.2663 59.3686 28.2663C58.1636 28.2663 57.1996 27.4312 57.1996 26.2166C57.1996 25.002 58.0833 24.1669 59.3686 24.1669ZM62.9033 26.2166C62.9033 26.1907 62.9037 26.165 62.9044 26.1394C62.9452 27.5437 64.1348 28.57 65.6348 28.57C66.4381 28.57 67.0808 28.3422 67.5628 27.8867L67.2415 27.5831C66.8398 28.0386 66.2775 28.1904 65.7151 28.1904C64.5101 28.1904 63.546 27.3553 63.546 26.1407C63.546 24.9261 64.4297 24.091 65.7151 24.091C66.2775 24.091 66.8398 24.3187 67.2415 24.6983L67.5628 24.3947C67.0808 23.9392 66.3578 23.7114 65.6348 23.7114C64.0568 23.7114 62.9438 24.7365 62.9044 26.1394C62.9037 26.1146 62.9033 26.0898 62.9033 26.0648V26.2166ZM68.6074 23.7874V26.5962H68.7681C68.7681 27.9627 69.5715 28.7218 70.8568 28.7218C72.1422 28.7218 72.9456 27.9627 72.9456 26.5962V23.7874H72.3832V26.5962C72.3832 27.7349 71.8209 28.2663 70.7765 28.2663C69.7321 28.2663 69.1698 27.7349 69.1698 26.5962V23.7874H68.6074ZM78.0871 28.6459L76.882 27.0517H76.4803H75.1146V28.57H74.5522V23.7114H76.4803C77.7657 23.7114 78.5691 24.3187 78.5691 25.3815C78.5691 26.1407 78.1674 26.6721 77.364 26.8998L78.6494 28.57H78.0871V28.6459ZM78.0871 25.4575C78.0871 24.6983 77.5247 24.2428 76.4803 24.2428H75.1146V26.6721H76.4803C77.5247 26.6721 78.0871 26.2166 78.0871 25.4575ZM82.2648 27.0517L83.4699 28.6459V28.57H84.0322L82.7468 26.8998C83.5502 26.6721 83.9519 26.1407 83.9519 25.3815C83.9519 24.3187 83.1485 23.7114 81.8631 23.7114H79.9351V28.57H80.4974V27.0517H81.8631H82.2648ZM81.8631 24.2428C82.9075 24.2428 83.4699 24.6983 83.4699 25.4575C83.4699 26.2166 82.9075 26.6721 81.8631 26.6721H80.4974V24.2428H81.8631ZM88.9325 28.1904V28.2663H85.8797V26.4444H88.5309V25.9889H85.8797V24.2428H88.8522V23.7874H85.3174V28.6459H88.9325V28.2663H89.0129L88.9325 28.1904ZM94.556 28.6459V23.7874H93.9936V27.7349L90.6998 23.7874H90.2178V28.6459H90.7801V24.6983L94.0739 28.6459H94.556ZM95.8418 26.2166C95.8418 26.1907 95.8422 26.165 95.8429 26.1394C95.8837 27.5437 97.0733 28.57 98.5732 28.57C99.3766 28.57 100.019 28.3422 100.501 27.8867L100.18 27.5831C99.7783 28.0386 99.2159 28.1904 98.6536 28.1904C97.4485 28.1904 96.4845 27.3553 96.4845 26.1407C96.4845 24.9261 97.3682 24.091 98.6536 24.091C99.2159 24.091 99.7783 24.3187 100.18 24.6983L100.501 24.3947C100.019 23.9392 99.2963 23.7114 98.5732 23.7114C96.9953 23.7114 95.8823 24.7365 95.8429 26.1394L95.8424 26.1195L95.842 26.0965L95.8418 26.0648V26.2166ZM103.313 28.6459V26.9758H103.232L105.321 23.7874H104.759L102.991 26.5203L101.224 23.7874H100.662L102.75 26.9758V28.6459H103.313ZM113.033 23.7874V28.6459H112.551L109.258 24.6983V28.6459H108.695V23.7874H109.177L112.471 27.7349V23.7874H113.033ZM118.416 28.2663V28.1904L118.497 28.2663H118.416ZM115.364 28.2663H118.416V28.6459H114.801V23.7874H118.336V24.2428H115.364V25.9889H118.015V26.4444H115.364V28.2663ZM126.771 23.7874L125.004 28.6459H124.442L122.915 24.4706L121.389 28.6459H120.826L119.059 23.7874H119.621L121.148 27.9627L122.674 23.7874H123.156L124.683 28.0386L126.209 23.7874H126.771ZM127.494 27.659L127.253 28.0386V28.1145C127.655 28.494 128.378 28.7218 129.181 28.7218C130.467 28.7218 131.11 28.0386 131.11 27.3553C131.11 26.4289 130.205 26.2291 129.356 26.0416C128.604 25.8756 127.896 25.7193 127.896 25.0779C127.896 24.5465 128.298 24.1669 129.262 24.1669C129.744 24.1669 130.226 24.2428 130.708 24.5465L130.869 24.1669C130.467 23.8633 129.824 23.7114 129.262 23.7114C127.896 23.7114 127.334 24.3947 127.334 25.0779C127.334 26.0543 128.257 26.2676 129.113 26.4656C129.855 26.6371 130.547 26.7971 130.547 27.4312C130.547 27.8867 130.146 28.2663 129.181 28.2663C128.539 28.2663 127.494 27.659 127.494 27.659ZM138.58 28.7218L137.857 28.0386C137.456 28.4941 136.813 28.7218 136.17 28.7218C135.126 28.7218 134.403 28.1904 134.403 27.5072C134.403 26.8998 134.724 26.5203 135.688 25.9889C135.206 25.5334 135.046 25.2297 135.046 24.8502C135.046 24.2428 135.528 23.7874 136.331 23.7874C137.054 23.7874 137.536 24.1669 137.536 24.7742C137.536 25.2297 137.215 25.6093 136.411 26.0648L137.857 27.4312C137.857 27.4312 138.098 26.8239 138.179 26.5203L138.58 26.6721C138.5 27.1276 138.339 27.5072 138.098 27.8108L138.821 28.4941L138.58 28.7218ZM137.536 27.7349L136.01 26.2166C135.206 26.6721 134.965 26.9758 134.965 27.4312C134.965 27.9627 135.447 28.3422 136.251 28.3422C136.813 28.3422 137.295 28.1904 137.616 27.8108L137.536 27.7349ZM135.528 24.7742C135.528 24.7742 135.608 25.2297 136.09 25.6852C136.813 25.3056 137.054 25.002 137.054 24.6983C137.054 24.3947 136.813 24.091 136.331 24.091C135.849 24.091 135.528 24.3947 135.528 24.7742ZM141.473 24.2428H143.24V28.6459H143.802V24.2428H145.65V23.7874H141.473V24.2428ZM150.229 28.1904V28.2663H147.177V26.4444H149.828V25.9889H147.177V24.2428H150.149V23.7874H146.614V28.6459H150.229V28.2663H150.31L150.229 28.1904ZM151.034 26.1394C151.033 26.165 151.033 26.1907 151.033 26.2166V26.0648C151.033 26.0898 151.033 26.1146 151.034 26.1394ZM151.034 26.1394C151.073 24.7365 152.186 23.7114 153.764 23.7114C154.487 23.7114 155.21 23.9392 155.692 24.3947L155.371 24.6983C154.969 24.3187 154.407 24.091 153.844 24.091C152.559 24.091 151.675 24.9261 151.675 26.1407C151.675 27.3553 152.639 28.1904 153.844 28.1904C154.407 28.1904 154.969 28.0386 155.371 27.5831L155.692 27.8867C155.21 28.3422 154.568 28.57 153.764 28.57C152.264 28.57 151.075 27.5436 151.034 26.1394ZM161.155 23.7874V28.6459H160.593V26.3684H157.379V28.6459H156.817V23.7874H157.379V25.9889H160.593V23.7874H161.155ZM167.18 28.6459V23.7874H166.618V27.7349L163.324 23.7874H162.842V28.6459H163.405V24.6983L166.698 28.6459H167.18ZM168.466 26.2166C168.466 24.7742 169.591 23.7114 171.197 23.7114C172.804 23.7114 173.929 24.7742 173.929 26.2166C173.929 27.659 172.804 28.7218 171.197 28.7218C169.591 28.7218 168.466 27.659 168.466 26.2166ZM173.366 26.2166C173.366 25.0779 172.483 24.1669 171.197 24.1669C169.912 24.1669 169.028 25.002 169.028 26.2166C169.028 27.4312 169.992 28.2663 171.197 28.2663C172.402 28.2663 173.366 27.4312 173.366 26.2166ZM175.696 23.7874H175.134V28.6459H178.588V28.1904H175.696V23.7874ZM178.99 26.2166C178.99 24.7742 180.115 23.7114 181.722 23.7114C183.328 23.7114 184.453 24.7742 184.453 26.2166C184.453 27.659 183.328 28.7218 181.722 28.7218C180.115 28.7218 178.99 27.659 178.99 26.2166ZM183.891 26.2166C183.891 25.0779 183.007 24.1669 181.722 24.1669C180.436 24.1669 179.553 25.002 179.553 26.2166C179.553 27.4312 180.517 28.2663 181.722 28.2663C182.927 28.2663 183.891 27.4312 183.891 26.2166ZM189.835 26.2166H189.273V27.8108C188.871 28.1145 188.389 28.1904 187.907 28.1904C186.702 28.1904 185.738 27.3553 185.738 26.1407C185.738 24.9261 186.702 24.091 187.988 24.091C188.55 24.091 189.112 24.3187 189.514 24.6983L189.835 24.3947C189.353 23.9392 188.711 23.7114 187.907 23.7114C186.3 23.7114 185.176 24.7742 185.176 26.2166C185.176 27.659 186.3 28.7218 187.907 28.7218C188.63 28.7218 189.353 28.494 189.835 28.1145V26.2166ZM193.129 28.6459H192.567V26.9758L190.478 23.7874H191.04L192.808 26.5203L194.575 23.7874H195.138L193.049 26.9758H193.129V28.6459ZM0 22.5729L6.90895 28.8738H29.8049V0.709473H0V22.5729ZM22.3336 12.8558C22.6549 10.8061 20.9678 9.7433 18.7184 8.98416H18.7988L19.5218 6.17532L17.7544 5.71983L17.0314 8.45275C16.8305 8.4148 16.6498 8.37684 16.469 8.33888C16.2882 8.30092 16.1075 8.26297 15.9066 8.22501H15.5853L16.3083 5.49209L14.5409 5.0366L13.8179 7.84544H13.5769C13.2555 7.76952 12.6932 7.61769 12.6932 7.61769L10.2027 7.01038L9.72073 8.83233L11.0061 9.13598C11.7291 9.28781 11.8095 10.1229 11.8095 10.1229L11.0061 13.3113L9.80106 17.7143C9.72073 17.8662 9.47972 18.2457 8.9977 18.0939L7.71231 17.7902L6.82861 19.6881L9.15837 20.2195C9.33058 20.2195 9.47972 20.2631 9.61815 20.3036C9.73803 20.3386 9.84988 20.3713 9.96173 20.3713C10.1224 20.4472 10.4438 20.5232 10.4438 20.5232L9.72073 23.332L11.4881 23.7875L12.2112 20.9786C12.6932 21.1305 13.1752 21.2823 13.6572 21.3582L12.9342 24.0911L14.7016 24.5466L15.4246 21.7378C18.4774 22.2692 20.7268 22.0415 21.6909 19.4604C22.4942 17.3348 21.6909 16.1201 20.0841 15.361C21.2089 15.0573 22.0926 14.3741 22.3336 12.8558ZM18.2364 18.2457C17.7544 20.1436 14.5409 19.3844 13.0949 19.0049H13.0145C12.9342 18.929 12.6932 18.929 12.6932 18.929L13.6572 15.2091C13.8179 15.2851 13.9786 15.2851 14.1392 15.2851C14.2315 15.308 14.3293 15.3318 14.4316 15.3566C16.0218 15.743 18.6893 16.3913 18.2364 18.2457ZM14.4895 13.6222L14.4606 13.6149V13.539H14.1392L15.0229 10.1988C15.1836 10.2747 15.2639 10.2747 15.4246 10.2747C16.71 10.5024 19.2808 11.0338 18.7988 12.8558C18.3206 14.588 15.7075 13.9293 14.4895 13.6222Z" fill="#171717"/>
</svg>
