<svg width="259" height="52" viewBox="0 0 259 52" fill="none" xmlns="http://www.w3.org/2000/svg">
<path fill-rule="evenodd" clip-rule="evenodd" d="M29.8307 18.7948L28.9989 18.4916L7.15417 10.5777L17.4118 6.74131L17.8705 6.90456L18.7296 7.21941L29.8501 11.2424L38.8834 14.4997L39.727 14.8029L40.2555 14.9933L30.6547 18.4916L29.8307 18.7948ZM24.1791 10.4961L21.979 9.58266L19.3437 10.5155L21.5437 11.4328L24.1791 10.4961ZM22.2356 13.1121L20.4243 12.3579L18.2631 13.1276L20.0666 13.8894L22.2356 13.1121ZM26.8999 12.3346L25.0886 11.5806L22.9197 12.3579L24.731 13.1121L26.8999 12.3346ZM19.7751 8.61094L17.9288 7.85299L15.791 8.6226L17.6334 9.38832L19.7751 8.61094ZM15.7871 9.72651L12.0207 11.0519L15.1613 12.3579L18.9278 11.0286L15.7871 9.72651ZM11.6436 5.45084L13.727 4.75118L15.48 5.46639L13.3928 6.16993L11.6436 5.45084ZM7.58174 6.45368L4.76757 5.29925L8.12594 4.17592L10.9401 5.32646L7.58174 6.45368ZM4.60821 6.4459L7.06477 7.45263L4.134 8.43603L1.67744 7.42931L4.60821 6.4459ZM2.87074 3.33244L4.91139 4.16814L2.47816 4.98441L0.4375 4.14871L2.87074 3.33244ZM8.10256 1.81264L9.44748 2.36459L7.84605 2.90099L6.50505 2.35293L8.10256 1.81264ZM3.04176 0.611572L4.38277 1.15963L2.78522 1.69992L1.44033 1.14797L3.04176 0.611572ZM152.145 43.7259C146.101 43.7259 142.945 39.6485 142.945 34.1406V31.031C142.945 25.5233 146.101 21.4419 152.145 21.4419C158.19 21.4419 161.357 25.5154 161.357 31.0233V34.1329C161.357 39.6485 158.19 43.7259 152.145 43.7259ZM156.266 31.0233C156.266 27.8632 154.843 25.8226 152.145 25.8226C149.448 25.8226 148.025 27.8632 148.025 31.0233V34.1329C148.025 37.2891 149.451 39.3297 152.145 39.3297C154.839 39.3297 156.266 37.2891 156.266 34.1329V31.0233ZM174.476 43.7259C173.24 43.7161 172.005 43.6266 170.779 43.4577V50.2754C170.779 50.4816 170.697 50.6794 170.552 50.8251C170.406 50.9709 170.208 51.0528 170.002 51.0528H166.461C166.255 51.0528 166.057 50.9709 165.912 50.8251C165.765 50.6794 165.684 50.4816 165.684 50.2754V23.4748C165.684 22.8995 165.839 22.6664 166.725 22.437C169.256 21.7951 171.854 21.4584 174.464 21.4341C180.661 21.4341 183.665 25.0918 183.665 31.0971V34.0629C183.676 40.0682 180.672 43.7259 174.476 43.7259ZM178.592 31.0971C178.592 27.941 177.783 25.5932 174.476 25.5932C173.239 25.5816 172.002 25.6713 170.779 25.8614V39.2986C172.005 39.4611 173.24 39.552 174.476 39.5707C177.783 39.5707 178.592 37.2386 178.592 34.0629V31.0971ZM204.892 34.335H192.337V34.4477C192.337 36.6827 193.262 39.3375 196.958 39.3375C199.769 39.3375 202.424 39.1082 204.04 38.9488H204.157C204.546 38.9488 204.849 39.1431 204.849 39.528V42.07C204.849 42.6842 204.736 42.9524 204.04 43.069C201.583 43.5596 199.079 43.7785 196.574 43.722C192.722 43.722 187.245 41.6464 187.245 34.059V31.2137C187.245 25.2084 190.596 21.4341 196.488 21.4341C202.381 21.4341 205.669 25.4882 205.669 31.2137V33.371C205.669 33.9851 205.428 34.335 204.892 34.335ZM200.538 30.5607C200.538 27.5562 198.882 25.8226 196.496 25.8226C194.109 25.8226 192.375 27.5172 192.375 30.5607V30.7123H200.538V30.5607ZM226.177 42.7269C223.646 43.3657 221.048 43.7011 218.438 43.7259C212.218 43.7259 209.237 40.0682 209.237 34.0629V31.0971C209.237 25.0918 212.238 21.4341 218.438 21.4341C219.675 21.4456 220.909 21.5365 222.134 21.7062V14.8885C222.134 14.6823 222.216 14.4846 222.362 14.3388C222.508 14.193 222.705 14.1111 222.911 14.1111H226.453C226.659 14.1111 226.857 14.193 227.002 14.3388C227.148 14.4846 227.23 14.6823 227.23 14.8885V41.7085C227.218 42.2644 227.047 42.4976 226.177 42.7269ZM222.134 25.8769C220.908 25.7176 219.674 25.6281 218.438 25.6087C215.126 25.6087 214.317 27.941 214.317 31.1127V34.0784C214.317 37.2347 215.126 39.5863 218.438 39.5863C219.675 39.5988 220.912 39.5078 222.134 39.3142V25.8769ZM236.764 18.8182H233.03C232.82 18.8184 232.619 18.7375 232.469 18.5925C232.317 18.4476 232.229 18.2499 232.221 18.0408V14.6592C232.228 14.4498 232.317 14.2515 232.467 14.1064C232.618 13.9613 232.82 13.8807 233.03 13.8818H236.764C236.971 13.8818 237.168 13.9637 237.315 14.1095C237.46 14.2552 237.542 14.453 237.542 14.6592V18.0486C237.54 18.2534 237.457 18.4492 237.311 18.5933C237.166 18.7374 236.969 18.8182 236.764 18.8182ZM236.648 43.4188H233.103C232.894 43.4117 232.696 43.3233 232.55 43.1724C232.405 43.0214 232.325 42.8198 232.326 42.6103V22.4758C232.326 22.2697 232.407 22.0719 232.554 21.9262C232.699 21.7803 232.897 21.6985 233.103 21.6985H236.648C236.854 21.6985 237.052 21.7803 237.197 21.9262C237.344 22.0719 237.425 22.2697 237.425 22.4758V42.6103C237.426 42.8198 237.346 43.0214 237.201 43.1724C237.055 43.3233 236.858 43.4117 236.648 43.4188ZM257.859 43.4188H254.586C254.381 43.4188 254.182 43.337 254.037 43.1911C253.891 43.0454 253.809 42.8476 253.809 42.6414V42.0273C252.187 43.0849 250.303 43.6704 248.367 43.7181C245.173 43.7181 241.709 42.4899 241.709 37.2891V37.1492C241.709 32.7569 244.402 30.4869 251.104 30.4869H253.529V28.7883C253.529 26.2851 252.413 25.6787 250.139 25.6787C248.045 25.672 245.951 25.7745 243.866 25.9858H243.672C243.283 25.9858 242.98 25.8692 242.98 25.3327V22.8607C242.98 22.437 243.209 22.1649 243.711 22.0522C245.829 21.6362 247.982 21.4292 250.139 21.4341C255.608 21.4341 258.609 23.8596 258.609 28.7883V42.6492C258.608 42.8494 258.528 43.0412 258.389 43.1845C258.249 43.3279 258.059 43.4118 257.859 43.4188ZM253.548 33.8724H251.123C247.625 33.8724 246.847 34.988 246.847 37.1453V37.2968C246.847 39.1859 247.695 39.6834 249.619 39.6834C250.997 39.6522 252.347 39.2824 253.548 38.6068V33.8724ZM31.502 19.3935L30.6545 19.7005V51.4609L40.9239 45.7393V27.0236L52.2622 22.9073L53.2184 22.5575L53.2884 11.5068L31.502 19.3935ZM40.5586 13.909L41.3826 14.2083L41.9268 14.4065L52.4993 10.5778L42.2416 6.73755L40.9239 7.21953L31.5214 10.6362L39.7268 13.6097L40.5586 13.909ZM76.4973 43.4576C75.6344 43.6201 74.7593 43.7098 73.8814 43.7258C69.5319 43.7258 67.7594 42.7658 67.7594 37.6078V25.5154L64.1406 24.979C63.9387 24.9661 63.7483 24.8801 63.6052 24.737C63.4621 24.5939 63.3761 24.4035 63.3633 24.2016V22.4758C63.3633 22.2696 63.4452 22.0719 63.5909 21.9261C63.7368 21.7803 63.9345 21.6984 64.1406 21.6984H67.7594V18.5461C67.7714 18.3438 67.8572 18.153 68.0005 18.0097C68.1438 17.8665 68.3345 17.7807 68.5368 17.7687L72.1167 17.1546H72.2721C72.3517 17.1454 72.4323 17.1537 72.5083 17.1789C72.5843 17.204 72.654 17.2454 72.7124 17.3001C72.7708 17.3548 72.8166 17.4216 72.8467 17.4958C72.8766 17.57 72.8902 17.6498 72.8863 17.7298V21.7062H76.3535C76.5597 21.7062 76.7574 21.7881 76.9032 21.9339C77.049 22.0797 77.1309 22.2774 77.1309 22.4835V24.7535C77.1309 24.9597 77.049 25.1574 76.9032 25.3033C76.7574 25.449 76.5597 25.531 76.3535 25.531H72.8863V37.6078C72.8863 39.5318 73.0029 39.7611 74.3905 39.7611H76.4313C76.9327 39.7611 77.2397 39.9555 77.2397 40.3403V42.7658C77.2319 43.1506 77.0104 43.3682 76.4973 43.4576ZM97.6739 34.3349H85.1228V34.4476C85.1228 36.6827 86.0433 39.3374 89.7442 39.3374C92.5543 39.3374 95.2091 39.1081 96.8261 38.9487H96.9426C97.3318 38.9487 97.6342 39.1431 97.6342 39.5279V42.07C97.6342 42.6841 97.5177 42.9524 96.8261 43.0689C94.3671 43.5596 91.8619 43.7785 89.355 43.7219C85.507 43.7219 80.0267 41.6463 80.0267 34.0589V31.2137C80.0267 25.2083 83.3769 21.4341 89.2699 21.4341C95.1628 21.4341 98.4432 25.4882 98.4432 31.2137V33.371C98.4432 33.9851 98.2134 34.3349 97.6739 34.3349ZM93.336 30.5607C93.336 27.5561 91.6801 25.8225 89.293 25.8225C86.9067 25.8225 85.1732 27.5172 85.1732 30.5607V30.7123H93.336V30.5607ZM115.768 43.2283C114.137 43.5885 112.469 43.7555 110.8 43.7258C105.794 43.7258 102.019 40.6474 102.019 34.3699V30.79C102.019 24.5165 105.794 21.4341 110.8 21.4341C112.47 21.4051 114.137 21.5734 115.768 21.9355C116.42 22.091 116.576 22.3242 116.576 22.9344V25.4377C116.576 25.8264 116.268 26.0168 115.884 26.0168H115.768C114.121 25.8022 112.46 25.7124 110.8 25.7486C108.988 25.7486 107.103 26.7864 107.103 30.8017V34.3816C107.103 38.389 108.988 39.4346 110.8 39.4346C112.46 39.4687 114.12 39.3791 115.768 39.1665H115.884C116.272 39.1665 116.576 39.3569 116.576 39.7417V42.2449C116.576 42.8434 116.42 43.0728 115.768 43.2283ZM137.826 43.4188H134.285C134.075 43.4117 133.877 43.3233 133.732 43.1723C133.587 43.0213 133.506 42.8197 133.508 42.6103V29.9426C133.508 26.596 132.928 25.7486 130.347 25.7486C129.042 25.7486 127.498 26.2112 125.881 27.0546V42.6025C125.882 42.8119 125.802 43.0136 125.656 43.1645C125.512 43.3155 125.314 43.4039 125.104 43.411H121.563C121.353 43.4039 121.155 43.3155 121.01 43.1645C120.865 43.0136 120.784 42.8119 120.786 42.6025V14.8884C120.786 14.6823 120.867 14.4846 121.013 14.3387C121.159 14.193 121.356 14.1111 121.563 14.1111H125.104C125.31 14.1111 125.508 14.193 125.653 14.3387C125.799 14.4846 125.881 14.6823 125.881 14.8884V22.8606C127.347 21.9744 128.963 21.4341 131.711 21.4341C137.025 21.4341 138.603 25.2083 138.603 29.9426V42.6103C138.604 42.8197 138.524 43.0213 138.379 43.1723C138.233 43.3233 138.035 43.4117 137.826 43.4188ZM28.1537 19.3935L29.001 19.7005V51.457L18.7317 45.7393V15.9846L28.1537 19.3935ZM17.072 15.3859L6.3634 11.5066L6.43337 22.5572L7.38956 22.9071L17.072 26.4248V15.3859Z" fill="#171717"/>
</svg>
