<svg width="177" height="49" viewBox="0 0 177 49" fill="none" xmlns="http://www.w3.org/2000/svg">
<path fill-rule="evenodd" clip-rule="evenodd" d="M34.4652 1.60818C34.627 1.27679 35.1933 0.862549 35.1933 0.862549H44.7401C53.8819 0.862549 54.3334 0.862549 54.5222 1.08526C54.532 1.09683 54.5411 1.109 54.5507 1.12181L54.5507 1.12183C54.5672 1.14393 54.5851 1.16791 54.6105 1.19394C54.6429 1.26022 54.7012 1.3265 54.7594 1.39277C54.8468 1.49219 54.9342 1.59161 54.9342 1.69103L55.096 1.93957V5.17063V8.65024C55.0151 8.89878 54.7724 9.31302 54.5296 9.47872L54.5154 9.48968C54.2072 9.72726 54.2072 9.72726 48.9472 9.72726H44.012V39.6353H49.0281L54.0442 39.7182H54.2869C54.6105 39.8839 54.9342 40.2153 55.0151 40.5466V44.1091C55.0151 46.5962 54.9618 47.229 54.9417 47.4677V47.4678C54.937 47.5233 54.9342 47.5575 54.9342 47.5887C54.8533 47.8372 54.2869 48.4172 54.2869 48.4172H44.5783L35.1124 48.3343H34.9506C34.7079 48.1686 34.3034 47.7544 34.3034 47.5059V24.557V1.85672L34.4652 1.60818ZM73.6237 1.60818C73.7855 1.27679 74.3519 0.862549 74.3519 0.862549H83.8986C93.0232 0.862549 93.48 0.862549 93.7363 1.08923C93.7498 1.10118 93.7628 1.11375 93.7764 1.12699C93.7977 1.14765 93.8206 1.16993 93.85 1.19394C93.9309 1.35964 94.1736 1.69103 94.1736 1.69103L94.3354 1.93957V24.6399C94.3354 46.8431 94.3354 47.3402 94.2545 47.5887C94.1736 47.8372 93.85 48.1686 93.6072 48.3343L93.4454 48.4172H83.9795L74.5137 48.3343H74.271C74.0282 48.1686 73.6237 47.7544 73.5428 47.5059V43.9434C73.5428 43.3174 73.5405 42.8035 73.5386 42.3797C73.5316 40.7823 73.5302 40.4663 73.6781 40.2547C73.7146 40.2026 73.7601 40.1568 73.8168 40.0997L73.8169 40.0996L73.8419 40.0745L73.8664 40.0496C74.0282 39.9667 74.271 39.6353 74.271 39.6353H74.4328H79.5298H84.6268V9.64441H79.6916C74.5875 9.64441 74.4373 9.56637 74.137 9.41028L74.1091 9.39587C73.8664 9.23018 73.6237 8.98163 73.5428 8.73309L73.535 8.70886L73.532 8.69965L73.5257 8.67914C73.4619 8.46539 73.4619 8.23258 73.4619 5.17063V1.85672L73.6237 1.60818ZM1.05176 10.5558L0 10.8872V21.0775V31.2678L0.728145 31.5991C1.86081 32.1791 3.07439 32.5105 4.28796 32.6762C4.8022 32.7347 5.67959 32.7105 6.37871 32.6913C6.66953 32.6833 6.92949 32.6762 7.11964 32.6762C9.54679 32.1791 11.4076 30.8535 12.3785 28.8652C13.5111 26.5454 13.3493 23.2315 12.0548 20.9946C11.4076 19.8348 10.5176 19.0063 9.30407 18.4263C8.1714 17.8464 7.20054 17.6807 5.82516 17.7636C4.44977 17.7636 3.55982 18.095 2.50805 18.7577L2.10353 19.0063V14.6153V10.2244C2.10353 10.2244 1.6181 10.3901 1.05176 10.5558ZM7.44326 19.8348C8.49502 20.1662 9.46588 20.8289 10.0322 21.7403C10.6795 22.7344 10.9222 23.8115 10.9222 25.3027C10.9222 27.0425 10.5176 28.2852 9.62769 29.1966C9.06136 29.7765 8.49502 30.1079 7.60507 30.4393C6.22968 30.9364 3.96434 30.7707 2.50805 30.1907L2.18443 30.025V25.5513V21.0775L2.50805 20.8289C3.07439 20.3318 3.88344 20.0005 4.69249 19.8348C5.33973 19.6691 5.50154 19.6691 6.31059 19.7519C6.87692 19.7519 7.11964 19.7519 7.44326 19.8348ZM151.373 19.5035C151.373 19.3378 151.697 18.9236 153.557 16.7695L153.719 16.9352C155.418 14.9469 155.984 14.3669 155.984 14.3669H156.065V17.9294H160.596V19.752H156.065V24.143V28.8653C156.227 29.6938 156.551 29.8595 157.603 29.8595C158.331 29.8595 159.14 29.6938 159.949 29.3624C160.272 29.1967 160.596 29.1138 160.596 29.1138V30.0252V31.1022H160.353C159.14 31.5993 158.088 31.8478 156.955 31.8478C155.904 31.8478 155.175 31.5993 154.69 31.1022C154.285 30.6879 154.124 30.3565 153.962 29.7766C153.719 29.1138 153.719 28.6996 153.719 24.0601V19.6692H151.373V19.5035ZM48.2194 16.7693C48.2194 16.7693 48.0576 16.8522 47.9767 16.935L47.8148 17.1007V19.0062C47.8148 20.8289 47.8148 20.9117 47.8958 20.9946L47.9198 21.0194L47.9199 21.0195C47.9526 21.0534 47.9804 21.0821 48.0115 21.1065C48.186 21.2431 48.4674 21.2431 50.3229 21.2431H52.3455V27.6224H50.242H48.1385L47.9767 27.7881L47.8148 27.9538V29.8593C47.8148 31.6819 47.8148 31.7648 47.8958 31.8476C47.9103 31.8625 47.9223 31.8765 47.9335 31.8897C47.9426 31.9004 47.9513 31.9106 47.9605 31.9203C48.1286 32.0962 48.4808 32.0962 55.2581 32.0962C61.9288 32.0962 62.4372 32.0962 62.5706 31.8725C62.5816 31.8541 62.59 31.8341 62.5992 31.8125C62.6032 31.803 62.6073 31.7933 62.6118 31.7832C62.6145 31.7772 62.6174 31.771 62.6205 31.7648C62.7014 31.5991 62.7014 31.4334 62.6205 29.7764C62.6205 28.1195 62.6205 27.9538 62.5396 27.8709C62.3778 27.6224 62.2968 27.6224 60.1124 27.6224H58.0898V21.2431H60.1124C61.9418 21.2431 62.2938 21.2431 62.4468 21.0686C62.4833 21.027 62.5084 20.9755 62.5395 20.9118L62.5396 20.9117C62.6205 20.746 62.6205 20.5803 62.5396 18.9234C62.5396 17.2664 62.5396 17.1007 62.4587 17.0179C62.4552 17.0126 62.452 17.0074 62.449 17.0023L62.4448 16.9951L62.4374 16.9821C62.3173 16.7693 62.3173 16.7693 55.0963 16.7693H48.2194ZM65.8567 16.8521C65.8567 16.8521 65.8242 16.8104 65.7797 17.0097L65.8567 16.8521ZM65.7782 17.0166L65.7758 17.0178L65.7797 17.0097L65.7782 17.0166ZM65.7782 17.0166C65.9384 16.9349 66.0278 16.9349 67.8793 16.9349C69.9828 16.9349 70.0637 16.9349 70.3065 17.1835C70.3874 17.2663 71.52 18.8404 72.8145 20.6631L75.2417 23.977V20.5802C75.2417 17.2663 75.2417 17.1835 75.3226 17.1006C75.5653 16.8521 75.5653 16.8521 77.8306 16.8521C79.8532 16.8521 79.9342 16.8521 80.096 16.9349C80.1177 16.9461 80.1381 16.9539 80.157 16.9611C80.1758 16.9683 80.1932 16.975 80.2094 16.9839C80.4196 17.0998 80.4196 17.5969 80.4196 24.5569V24.5589C80.4196 31.6819 80.4196 31.8476 80.3387 32.0132L80.3138 32.0475L80.3137 32.0476C80.2735 32.1032 80.2408 32.1484 80.2004 32.1851C80.025 32.3446 79.7045 32.3446 77.9924 32.3446L76.0507 32.1789H75.808C75.6462 32.0961 75.0798 31.4333 73.1381 28.865L70.711 25.7168V28.7822C70.6339 32.0186 70.6303 32.0209 70.4201 32.1573L70.42 32.1574C70.4096 32.1641 70.3988 32.1711 70.3874 32.1789C70.3065 32.2618 70.1446 32.2618 68.122 32.2618C65.7758 32.2618 65.7758 32.2618 65.614 31.9304C65.5331 31.7647 65.5331 31.599 65.5331 24.4761V24.4741C65.5331 19.0146 65.6824 17.4552 65.7782 17.0166ZM105.419 17.2665C104.448 17.3493 103.396 17.5978 102.506 18.0949C101.131 18.7577 99.9173 20.0004 99.351 21.326C98.7847 22.5687 98.542 24.06 98.7038 25.6341C99.0274 29.1137 101.455 31.5991 105.014 32.0962C105.662 32.1791 107.037 32.1791 107.765 32.0962C108.239 32.0962 108.583 32.0074 109.019 31.8948L109.019 31.8948C109.178 31.8536 109.35 31.8092 109.545 31.7648L110.03 31.5991V30.5221V29.4451C110.03 29.4451 109.788 29.4451 109.545 29.6108C108.979 29.8593 108.089 30.025 107.361 30.1079C106.552 30.1907 105.419 30.1079 104.772 30.025C104.205 29.8593 103.72 29.6936 103.234 29.3622C102.668 29.0308 102.425 28.7823 102.021 28.2852C101.212 27.291 100.807 26.1312 100.807 24.7228C100.807 22.1545 102.264 20.1661 104.691 19.5033L104.691 19.5033C104.918 19.437 105.054 19.3972 105.192 19.3733C105.4 19.3377 105.614 19.3377 106.147 19.3377C106.875 19.3377 107.199 19.3377 107.603 19.4205C107.749 19.4536 107.898 19.4868 108.047 19.5199C108.642 19.6525 109.238 19.785 109.626 19.9176L109.95 20.0833V19.0063V17.9292L109.545 17.7635C109.06 17.5978 108.17 17.4322 107.603 17.3493C107.401 17.3493 107.151 17.3412 106.885 17.3326L106.885 17.3326H106.885C106.303 17.3137 105.646 17.2924 105.257 17.3493L105.419 17.2665ZM139.4 19.0893C140.37 18.0951 141.746 17.4323 143.121 17.2666C143.526 17.1009 144.497 17.1838 144.982 17.2666C147.49 17.8465 149.351 19.9177 149.836 22.7346C149.836 22.994 149.844 23.3102 149.853 23.6452L149.853 23.6469C149.871 24.3814 149.892 25.2053 149.836 25.7171C149.675 27.0426 149.189 28.2854 148.461 29.2795C148.056 29.8595 147.409 30.5223 146.924 30.8536C146.196 31.4336 145.306 31.8478 144.416 32.0135C143.445 32.2621 141.908 32.1792 140.694 31.8478C140.37 31.765 139.481 31.3507 139.238 31.185C139.157 31.1022 139.076 31.1022 139.076 31.1022V34.2504V37.3986H136.892V17.7637H139.076V19.4206L139.4 19.0893ZM146.196 20.332C145.791 19.9177 144.982 19.5035 144.416 19.4206L144.335 19.3378C144.188 19.3378 143.996 19.3302 143.787 19.3219C143.306 19.3028 142.732 19.28 142.393 19.3378C141.976 19.4091 141.678 19.5416 141.242 19.7355C141.171 19.767 141.097 19.8001 141.018 19.8349C140.37 20.0834 139.885 20.4977 139.4 20.9948L139.076 21.3261V29.031H139.238C139.642 29.3624 140.29 29.6938 140.937 29.8595C141.746 30.1909 142.07 30.1909 142.959 30.1909C143.688 30.1909 143.849 30.1909 144.173 30.108C144.982 29.8595 145.629 29.5281 146.196 28.9481C146.924 28.2025 147.409 27.2912 147.652 25.9656C147.733 25.3857 147.733 23.8116 147.652 23.2316C147.409 21.9889 146.924 20.9948 146.196 20.332ZM168.849 17.2665C168.849 17.2665 168.121 17.3493 167.878 17.4322C164.318 18.2606 162.134 21.2432 162.377 25.137C162.458 27.1253 163.105 28.6166 164.237 29.8593C165.208 30.8535 166.26 31.4334 167.635 31.8477C168.445 32.0962 169.011 32.0962 169.982 32.0962C171.195 32.0962 172.085 31.8477 173.137 31.3506C174.593 30.605 175.564 29.6936 176.292 28.2024C176.616 27.5396 176.778 26.8768 176.94 26.1312C177.02 25.4684 177.02 23.9771 176.94 23.2315C176.697 21.6574 176.05 20.3318 174.998 19.3377C173.784 18.0949 172.247 17.4322 170.386 17.2665H168.849ZM170.791 19.2548C172.166 19.5033 173.218 20.3318 173.946 21.4088C174.593 22.403 174.836 23.3143 174.836 24.7228C174.836 25.6341 174.836 25.9655 174.593 26.7111C173.865 29.0308 171.843 30.4393 169.415 30.2736C166.907 30.1079 165.047 28.4509 164.642 25.8826C164.561 25.2198 164.561 24.06 164.642 23.48C164.723 22.983 164.966 22.3202 165.127 21.9059C165.856 20.4975 167.15 19.5033 168.687 19.2548C169.254 19.172 170.305 19.172 170.791 19.2548ZM115.451 20.746C116.422 18.592 117.636 17.7635 120.144 17.3493L120.225 17.4321H120.467H120.629V19.9176H120.225C118.688 20.0004 117.717 20.4146 116.827 21.326C116.179 21.9887 115.856 22.5687 115.532 23.6457C115.209 24.557 115.209 24.7227 115.209 28.368V31.6819H114.157H113.105V17.8464H114.157H115.209V19.5862V21.326L115.451 20.746ZM21.6824 17.6808H21.197C19.9834 17.8465 18.8507 18.3436 17.9608 19.0064C17.4753 19.3378 16.7472 20.1662 16.4236 20.6633C15.9381 21.4918 15.6145 22.2374 15.3718 23.3145C15.2909 23.8944 15.2909 23.9772 15.2909 25.0543C15.2909 26.297 15.2909 26.6284 15.5336 27.4569C16.2618 30.3565 18.4462 32.262 21.6015 32.6763H24.1905C25.2422 32.5934 26.6985 32.1792 27.7503 31.7649H27.993V30.5222V29.4452L27.4267 29.7766C25.9704 30.5222 24.2714 30.8536 22.5724 30.7708C21.8442 30.7708 21.4397 30.6879 20.7924 30.4394C19.2552 29.8594 18.1226 28.6996 17.7181 26.9598C17.6857 26.7609 17.6533 26.5356 17.621 26.3103L17.621 26.3102C17.5724 25.9722 17.5239 25.6342 17.4753 25.3857V25.22H29.1257V24.8886C29.1257 24.3915 29.0448 23.4802 28.8829 22.9002C28.1548 20.0006 26.2131 18.0122 23.5432 17.598H21.7633L21.6824 17.6808ZM23.3005 19.5863C24.1905 19.752 24.9995 20.0834 25.5658 20.6633C26.2131 21.3261 26.6985 22.3203 26.7794 23.3145V23.6459H22.1678H17.4753C17.4753 23.4802 17.6371 22.8174 17.799 22.486C18.1226 21.7404 18.6889 20.9947 19.3362 20.5805C20.3879 19.8349 21.9251 19.5035 23.2196 19.6692L23.3005 19.5863ZM121.264 18.0119C121.22 17.9035 121.196 17.8462 121.196 17.8462V18.0119H121.264ZM124.028 24.7225C122.698 21.4975 121.55 18.7065 121.264 18.0119H122.329H123.461L125.646 23.397C126.859 26.3795 127.911 28.8649 127.911 28.8649C127.922 28.8761 127.929 28.8904 127.938 28.8923C127.996 28.9043 128.159 28.4117 130.257 23.397C130.53 22.726 130.803 22.0457 131.055 21.4195C131.548 20.1901 131.957 19.1697 132.118 18.8403L132.523 17.929H133.574H134.626C134.575 17.929 133.832 19.7151 132.713 22.406C132.078 23.9343 131.321 25.7545 130.5 27.7051L126.455 37.3982H125.403H124.351C124.381 37.3376 124.66 36.6777 125.013 35.8409C125.626 34.3913 126.463 32.4111 126.617 32.096L126.859 31.5161L124.028 24.7225Z" fill="#171717"/>
</svg>
