<?xml version="1.0" standalone="no"?>
<!DOCTYPE svg PUBLIC "-//W3C//DTD SVG 20010904//EN"
 "http://www.w3.org/TR/2001/REC-SVG-20010904/DTD/svg10.dtd">
<svg version="1.0" xmlns="http://www.w3.org/2000/svg"
 width="500.000000pt" height="500.000000pt" viewBox="0 0 500.000000 500.000000"
 preserveAspectRatio="xMidYMid meet">
<metadata>
Created by potrace 1.14, written by Peter Selinger 2001-2017
</metadata>
<g transform="translate(0.000000,500.000000) scale(0.100000,-0.100000)"
fill="#000000" stroke="none">
<path d="M2398 4414 c-2 -1 -32 -4 -68 -5 -65 -2 -300 -48 -352 -68 -16 -6
-28 -9 -28 -7 0 13 -267 -103 -395 -171 -120 -64 -291 -198 -413 -322 -284
-290 -460 -640 -533 -1061 -8 -45 -13 -158 -14 -280 0 -233 6 -289 52 -475 28
-115 39 -150 82 -258 32 -79 109 -231 142 -279 11 -14 19 -29 19 -33 0 -9 130
-183 171 -229 87 -97 187 -191 267 -252 31 -24 62 -48 68 -53 16 -13 153 -101
158 -101 2 0 30 -15 63 -33 65 -37 205 -98 273 -120 105 -33 188 -56 225 -63
22 -4 47 -8 55 -9 165 -29 375 -38 531 -23 385 36 728 181 1060 445 63 50 223
221 287 306 128 169 247 393 295 552 49 162 57 194 62 230 3 22 10 65 15 95
29 173 29 410 0 580 -5 30 -12 73 -15 95 -12 81 -69 262 -122 383 -195 456
-591 840 -1053 1021 -230 91 -434 132 -672 136 -87 1 -159 1 -160 -1z m138
-602 c1 -7 0 -8 -3 -2 -2 5 -9 8 -14 4 -5 -3 -9 0 -9 6 0 15 23 7 26 -8z
m-126 -98 c0 -12 -7 -24 -15 -27 -8 -4 -26 -24 -40 -47 -14 -22 -30 -38 -35
-35 -19 12 13 153 43 191 l20 27 14 -44 c7 -24 13 -54 13 -65z m298 23 c22
-57 30 -137 14 -137 -4 0 -15 13 -24 28 -9 15 -28 39 -42 53 l-25 26 16 56
c18 66 28 62 61 -26z m1158 -198 c0 -12 -5 -18 -14 -14 -7 3 -17 5 -22 5 -4 0
-6 8 -3 19 6 25 39 16 39 -10z m39 -321 c15 3 17 1 9 -9 -6 -8 -10 -24 -9 -35
1 -17 -4 -21 -22 -20 -13 0 -23 4 -23 8 0 4 -6 5 -12 3 -9 -4 -13 7 -13 34 0
38 1 39 25 27 14 -7 34 -10 45 -8z m-2890 -1092 c18 -8 38 -24 45 -35 17 -33
19 -93 4 -128 -12 -31 -12 -33 7 -33 52 0 95 -46 114 -123 10 -39 -18 -97 -60
-126 -19 -13 -45 -32 -57 -42 -13 -10 -27 -22 -33 -27 -5 -4 -25 -17 -43 -28
-33 -19 -34 -19 -48 0 -30 42 -4 90 75 137 78 47 111 78 111 100 0 18 -6 20
-57 18 -64 -2 -157 -30 -184 -55 -16 -15 -19 -13 -38 25 -12 22 -21 47 -21 55
0 8 30 38 67 67 105 82 125 102 112 110 -21 13 -136 -26 -193 -65 l-29 -19
-18 24 c-36 47 -17 85 61 124 73 37 130 44 185 21z m3138 -7 c68 -34 127 -73
127 -84 0 -5 -9 -21 -19 -35 -19 -24 -21 -24 -68 -12 -26 7 -64 23 -83 36 -19
13 -46 26 -59 31 -22 7 -23 5 -16 -25 13 -61 47 -123 91 -166 24 -23 44 -48
44 -54 0 -21 -34 -70 -48 -70 -33 0 -166 90 -207 140 -21 26 -21 45 -2 64 15
14 26 14 55 -3 22 -12 23 -11 17 8 -11 34 -8 96 5 121 20 37 63 69 93 70 15 0
47 -9 70 -21z m-2965 -47 c7 -5 10 -16 6 -26 -5 -13 -9 -14 -20 -5 -15 12 -19
39 -6 39 4 0 13 -4 20 -8z m2666 -205 c-6 -17 12 -39 66 -77 25 -17 61 -46 80
-64 19 -17 46 -39 59 -48 23 -16 25 -16 37 0 7 9 16 14 20 9 10 -9 -30 -94
-61 -129 -29 -33 -50 -37 -42 -7 5 17 -15 41 -96 119 -96 93 -102 97 -123 83
-15 -10 -24 -11 -29 -3 -8 13 28 85 57 117 21 23 41 23 32 0z m-2584 -32 c0
-8 -4 -15 -10 -15 -5 0 -10 7 -10 15 0 8 5 15 10 15 6 0 10 -7 10 -15z m-4
-183 c7 -4 22 -25 34 -47 47 -84 18 -195 -63 -246 -92 -57 -189 49 -178 194 1
16 71 99 71 85 0 -3 17 0 38 8 41 15 81 17 98 6z m2590 -1 c25 -2 86 -73 98
-113 25 -84 -35 -175 -126 -192 -64 -11 -129 70 -143 180 -6 51 -6 52 36 87
41 35 64 44 104 41 11 -1 25 -3 31 -3z m214 -145 c0 -3 -4 -8 -10 -11 -5 -3
-10 -1 -10 4 0 6 5 11 10 11 6 0 10 -2 10 -4z m-438 -48 c13 -21 9 -48 -9 -66
-18 -18 -22 -17 -39 6 -6 9 -16 12 -23 8 -22 -14 -3 -176 21 -176 4 0 8 -6 8
-14 0 -15 21 -27 56 -33 35 -6 48 20 41 86 -5 46 -3 62 9 72 23 19 35 -1 41
-69 5 -51 2 -66 -16 -96 -49 -79 -131 -98 -186 -43 -53 53 -73 196 -37 267 31
62 109 96 134 58z m-2155 -40 c53 -59 66 -135 34 -202 -29 -59 -62 -87 -110
-93 -37 -5 -44 -2 -80 33 -90 91 -72 203 44 259 63 30 86 31 112 3z m171 -120
c15 -15 16 -64 2 -73 -22 -13 -8 -23 23 -16 17 4 43 5 56 1 35 -8 70 -67 65
-111 -3 -38 -40 -129 -75 -185 -18 -30 -23 -32 -40 -21 -29 17 -21 87 17 164
16 32 29 60 29 63 0 3 4 11 8 18 12 18 -18 15 -61 -7 -37 -19 -73 -51 -116
-105 -27 -32 -55 -30 -75 7 -10 19 -9 30 6 62 39 86 124 215 142 215 4 0 12
-5 19 -12z m1791 -55 c-25 -33 -104 -109 -141 -137 -27 -20 -45 -27 -62 -22
-34 8 -23 43 20 64 19 8 35 19 35 24 1 4 3 13 4 18 1 6 3 14 4 19 0 4 11 6 24
4 12 -2 42 7 67 21 54 30 67 32 49 9z m-186 -59 c-3 -8 -14 -14 -24 -14 -24 0
-46 -35 -55 -88 l-7 -42 29 5 c16 3 36 1 44 -5 13 -9 10 -15 -18 -39 -33 -28
-33 -30 -18 -53 35 -54 92 -53 120 0 18 34 46 50 46 26 0 -54 -119 -132 -184
-120 -28 5 -37 15 -62 64 -59 116 -32 238 61 276 37 15 76 9 68 -10z m236 -73
c-15 -5 -22 6 -14 19 6 9 10 9 16 -1 5 -8 4 -15 -2 -18z m-463 -35 c16 -16 28
-49 44 -121 5 -22 13 -58 19 -80 22 -87 21 -95 -4 -101 -13 -3 -29 -3 -36 1
-18 12 -47 86 -53 139 -24 208 -89 166 -82 -55 l3 -109 -33 -6 c-18 -3 -37 -3
-42 0 -8 5 -22 53 -22 78 0 5 -6 25 -14 45 -8 21 -20 60 -27 86 -9 38 -14 45
-21 33 -14 -26 -12 -179 4 -258 2 -8 -10 -14 -33 -16 -35 -3 -36 -2 -49 43
-35 125 -5 281 58 303 33 11 75 -6 92 -39 11 -19 13 -17 33 23 16 32 31 46 57
54 38 13 81 4 106 -20z m-896 4 c11 -11 22 -31 26 -45 3 -14 8 -25 10 -25 4 0
40 29 57 46 13 13 61 4 94 -17 34 -21 46 -61 39 -126 -4 -32 -9 -86 -12 -121
-8 -106 -24 -126 -71 -89 -15 11 -17 97 -3 147 14 55 21 134 11 148 -12 19
-42 -15 -75 -82 -27 -55 -57 -151 -50 -159 12 -11 -25 -13 -56 -3 -33 10 -35
13 -32 50 2 22 6 49 8 60 9 46 14 166 6 166 -18 0 -82 -169 -84 -222 -1 -22
-6 -28 -23 -28 -42 0 -59 23 -51 71 11 75 49 168 84 210 27 31 40 39 68 39 21
0 42 -8 54 -20z m521 -53 c-1 -12 -15 -9 -19 4 -3 6 1 10 8 8 6 -3 11 -8 11
-12z m-244 -12 c0 -8 -4 -12 -9 -9 -4 3 -8 9 -8 15 0 5 4 9 8 9 5 0 9 -7 9
-15z m178 3 c33 -15 32 -29 -2 -26 -39 2 -66 -15 -89 -57 -16 -31 -17 -37 -4
-45 8 -5 17 -7 22 -4 9 6 32 -36 23 -44 -7 -7 -13 -9 -46 -11 -19 -1 -20 -5
-14 -37 3 -20 14 -44 23 -55 21 -21 70 -19 87 5 15 20 45 21 45 1 0 -36 -93
-63 -164 -48 -55 12 -78 47 -81 120 -2 58 22 142 48 167 47 46 100 58 152 34z
m43 -70 c1 -5 2 -28 2 -53 0 -43 -1 -45 -30 -45 -23 0 -30 4 -30 20 0 11 -9
25 -20 32 -24 15 -25 27 -5 42 17 12 79 15 83 4z"/>
<path d="M1240 1573 c-8 -2 -22 -7 -30 -10 -8 -4 -18 -6 -21 -5 -16 3 -80 -66
-85 -90 -2 -16 -1 -28 3 -29 5 0 17 -2 28 -4 35 -7 98 37 122 85 27 54 23 67
-17 53z"/>
<path d="M3750 1577 c0 -31 33 -107 60 -137 35 -39 75 -39 76 0 1 32 -27 89
-59 118 -29 27 -77 39 -77 19z"/>
<path d="M1425 1348 c-53 -27 -73 -45 -91 -84 -18 -38 -14 -71 7 -65 8 2 19 4
26 5 42 7 107 98 101 141 l-3 23 -40 -20z"/>
</g>
</svg>
