<svg width="196" height="38" viewBox="0 0 196 38" fill="none" xmlns="http://www.w3.org/2000/svg">
<path fill-rule="evenodd" clip-rule="evenodd" d="M32.6456 0.645908C35.0977 0.82279 37.0637 2.81271 37.2404 5.26695C37.4392 8.20761 35.1418 10.6398 32.2701 10.6176C30.8784 10.6176 29.6192 10.0649 28.7135 9.13626C27.9403 8.34029 26.9021 7.87596 25.7976 7.87596H25.4441C24.3396 7.87596 23.3014 8.34029 22.5282 9.13626C21.6225 10.0428 20.3634 10.6176 18.9717 10.6176C17.58 10.6176 16.3208 10.0649 15.4151 9.13626C14.6419 8.34029 13.6037 7.87596 12.4992 7.87596H12.1016C10.997 7.87596 9.9588 8.34029 9.18563 9.11415L9.14145 9.15838L9.09728 9.20255C8.32411 9.97641 7.86022 11.0156 7.86022 12.1211V12.5191C7.86022 13.6246 8.32411 14.6638 9.11937 15.4377C10.0251 16.3442 10.5994 17.6045 10.5994 18.9974C10.5994 20.3904 10.0471 21.6507 9.11937 22.5572C8.32411 23.3311 7.86022 24.3702 7.86022 25.4757V25.9179C7.86022 27.0235 8.32411 28.0626 9.11937 28.8365L9.16354 28.8807C9.93671 29.6767 10.997 30.0968 12.0795 30.0968H12.5434C13.6258 30.0968 14.664 29.6325 15.4372 28.8586C16.3429 27.9521 17.602 27.3993 18.9717 27.3993C21.8655 27.3993 24.1629 29.8315 23.9641 32.7721C23.7873 35.2484 21.7992 37.2384 19.3472 37.4153C17.7788 37.5258 16.3429 36.9288 15.3488 35.8897C14.5978 35.0937 13.5816 34.6294 12.4992 34.6294H12.0795C10.997 34.6294 9.98089 35.1158 9.22981 35.8897C8.27993 36.8846 6.93243 37.4816 5.43028 37.4374C2.8457 37.3489 0.725028 35.2485 0.614576 32.6394C0.548305 31.1581 1.14475 29.8094 2.11672 28.8586C2.88988 28.1069 3.35378 27.0898 3.35378 26.0064V25.4978C3.35378 24.3923 2.88988 23.3532 2.09463 22.5793C1.18893 21.6728 0.614576 20.4125 0.614576 19.0195C0.614576 17.6266 1.16683 16.3663 2.09463 15.4598C2.88988 14.6859 3.35378 13.6467 3.35378 12.5412V12.1654C3.35378 11.082 2.93406 10.0206 2.13881 9.26889L2.07254 9.20255C0.0402263 7.16844 0.128588 3.80767 2.31553 1.88408C4.12694 0.270033 6.88826 0.225813 8.76591 1.75142C8.92053 1.88408 9.07519 2.03886 9.22981 2.19363C9.98089 2.96748 11.0192 3.38758 12.1016 3.38758H12.4771C13.5816 3.38758 14.6199 2.92326 15.393 2.12729C16.2987 1.22078 17.5579 0.645908 18.9496 0.645908C20.3413 0.645908 21.6004 1.19866 22.5061 2.12729C23.2793 2.92326 24.3176 3.38758 25.422 3.38758H25.8197C26.9021 3.38758 27.9182 2.92326 28.6693 2.14941C29.6634 1.13233 31.0772 0.535357 32.6456 0.645908ZM94.185 7.13617C95.3667 8.31909 95.3667 10.237 94.185 11.4199C93.0027 12.6028 91.0868 12.6028 89.905 11.4199C88.7232 10.237 88.7232 8.31909 89.905 7.13617C91.0868 5.95324 93.0027 5.95324 94.185 7.13617ZM55.2224 26.7573C51.6218 26.7573 49.3906 23.5292 49.3906 19.0629C49.3906 14.6409 51.2683 11.3464 55.2003 11.3464C57.7847 11.3464 59.4857 13.0047 59.7953 15.1936H65.8038C65.4942 12.4741 64.2794 10.0862 62.1589 8.49423C60.4357 7.16759 58.05 6.34956 55.2224 6.34956C47.9768 6.34956 43.2715 11.8329 43.2715 19.0629C43.2715 26.3372 48.1314 31.6658 55.2668 31.6658C58.6904 31.6658 61.1866 30.7151 63.0424 28.902C64.699 27.3101 65.8039 25.099 65.9582 22.689H59.9496C59.6849 25.0548 57.9173 26.7573 55.2224 26.7573ZM77.0474 13.2704C71.4806 13.2704 67.7473 17.2503 67.7473 22.4904C67.7473 27.7305 71.4806 31.7104 77.0474 31.7104C82.658 31.7104 86.3252 27.7305 86.3252 22.4904C86.3252 17.2503 82.658 13.2704 77.0474 13.2704ZM77.0252 27.7526C74.6172 27.7526 73.358 25.6522 73.358 22.4904C73.358 19.3286 74.6172 17.184 77.0252 17.184C79.4331 17.184 80.7362 19.3286 80.7362 22.4904C80.7145 25.6522 79.4331 27.7526 77.0252 27.7526ZM87.2306 17.6488H89.5498V31.1581H95.0727V13.7352H87.2306V17.6488ZM103.291 16.1229C104.572 14.2436 106.251 13.2265 108.658 13.2265C112.458 13.2265 114.711 15.9461 114.711 19.8154V31.1358H109.167V20.943C109.167 19.1078 108.261 17.8476 106.45 17.8476C104.616 17.8476 103.401 19.3732 103.401 21.5178V31.1358H97.8565V13.7351H103.18V16.1229H103.291ZM127.701 6.83686H117.341V31.1361H127.326C130.374 31.1361 132.826 30.3622 134.726 28.925C137.443 26.8467 138.945 23.4196 138.945 19.1302C138.945 11.7011 134.416 6.83686 127.701 6.83686ZM126.884 26.0949H123.349V11.878H126.95C130.728 11.878 132.87 14.7302 132.87 19.1523C132.848 23.5964 130.816 26.0949 126.884 26.0949ZM149.415 13.3593C151.889 13.3593 153.855 14.1774 155.357 15.5261C157.434 17.4276 158.45 20.4346 158.428 23.9943H145.924C146.278 26.338 147.559 27.7973 149.835 27.7973C151.293 27.7973 152.243 27.1561 152.728 26.0727H158.119C157.743 27.6425 156.727 29.124 155.203 30.1852C153.744 31.2023 151.977 31.7772 149.769 31.7772C144.025 31.7772 140.49 27.7973 140.49 22.5351C140.49 17.3391 144.113 13.3593 149.415 13.3593ZM149.503 17.2728C147.405 17.2728 146.322 18.5994 145.947 20.6778H152.795C152.596 18.5994 151.293 17.2728 149.503 17.2728ZM168.587 20.1265L168.587 20.1264C166.703 19.8047 165.165 19.5421 165.165 18.4664C165.165 17.383 166.225 16.8745 167.572 16.8745C169.097 16.8745 170.157 17.3609 170.356 18.9086H175.459C175.194 15.4815 172.543 13.3369 167.617 13.3369C163.508 13.3369 160.106 15.2383 160.106 18.9086C160.106 22.999 163.331 23.795 166.357 24.3035C166.581 24.3418 166.802 24.378 167.019 24.4137C169.061 24.7484 170.775 25.0294 170.775 26.4482C170.775 27.5758 169.715 28.1728 168.058 28.1728C166.225 28.1728 165.076 27.3326 164.855 25.5859H159.62C159.797 29.4331 162.978 31.7768 168.081 31.7768C172.631 31.7768 175.989 29.809 175.989 26.006C176.011 21.5619 172.41 20.7659 169.34 20.2574C169.085 20.2114 168.833 20.1685 168.587 20.1265ZM195.142 13.7353L189.023 20.2799L195.849 31.1581H189.443L185.268 24.0386L183.589 25.8074V31.1581H178.133V6.83686H183.589V19.6166L188.758 13.7353H195.142ZM18.928 20.6781C19.8552 20.6781 20.6068 19.9257 20.6068 18.9977C20.6068 18.0696 19.8552 17.3173 18.928 17.3173C18.0008 17.3173 17.2491 18.0696 17.2491 18.9977C17.2491 19.9257 18.0008 20.6781 18.928 20.6781ZM33.9935 18.9977C33.9935 19.9257 33.2419 20.6781 32.3147 20.6781C31.3874 20.6781 30.6358 19.9257 30.6358 18.9977C30.6358 18.0696 31.3874 17.3173 32.3147 17.3173C33.2419 17.3173 33.9935 18.0696 33.9935 18.9977ZM32.3147 34.099C33.2419 34.099 33.9935 33.3466 33.9935 32.4186C33.9935 31.4906 33.2419 30.7382 32.3147 30.7382C31.3874 30.7382 30.6358 31.4906 30.6358 32.4186C30.6358 33.3466 31.3874 34.099 32.3147 34.099Z" fill="#171717"/>
</svg>
