<svg width="206" height="50" viewBox="0 0 206 50" fill="none" xmlns="http://www.w3.org/2000/svg">
<path fill-rule="evenodd" clip-rule="evenodd" d="M12.7642 0H36.7655L48.8085 12.2764H24.8072L24.7224 12.3634V12.2764L12.7652 0.00101613L24.7224 12.3634H0.721191L12.7642 0ZM24.7223 37.0034H48.7236L36.7654 49.2797L12.6794 49.2798L0.721191 37.0032V12.3634L24.6376 12.3635L12.7217 24.5964L12.7642 24.6398V24.727L24.7223 37.0034ZM36.7655 24.64L36.6806 24.6398L24.7224 12.3634L48.7236 12.3635L36.7655 24.64ZM36.7655 24.64H36.8503L48.8085 36.9163H24.8072L36.7655 24.64ZM64.0747 28.645C63.7354 28.9932 63.2266 29.1674 62.6329 29.1674L62.5481 29.2544C61.7 29.2544 61.0215 28.9062 60.6822 28.2096C60.343 27.426 60.1734 26.3812 60.1734 25.0752V24.727C60.0886 23.6822 60.2582 22.6374 60.6822 21.6796C61.0215 20.896 61.6152 20.5478 62.5481 20.5478C63.2266 20.5478 63.6506 20.809 63.9898 21.2443C64.3291 21.7667 64.4987 22.4632 64.4987 23.0727L68.9088 22.9856C68.9937 21.3314 68.4 19.59 67.2126 18.4582C66.0253 17.3263 64.4987 16.8039 62.5481 16.8039C60.2582 16.8039 58.4772 17.5004 57.205 18.9806C55.9329 20.4607 55.3392 22.3762 55.3392 24.727V25.0752C55.1696 27.1648 55.9329 29.1674 57.205 30.8216C58.4772 32.2147 60.2582 32.9983 62.6329 32.9983C64.3291 32.9983 65.9405 32.4759 67.2126 31.344C68.4 30.2992 69.0785 28.732 68.9937 27.0778H64.5835C64.5835 27.7743 64.4139 28.2967 64.0747 28.645ZM77.8139 21.2443H79.5949L80.1038 16.8039C79.5949 16.6298 79.1709 16.6298 78.7468 16.6298C78.0683 16.6298 77.3899 16.891 76.881 17.3263C76.2873 17.8487 75.8633 18.4582 75.6088 19.2418L75.4392 16.891H70.9443V32.65H75.6937V22.2891C75.8633 21.9408 76.1177 21.6796 76.4569 21.5055C76.7962 21.3314 77.3051 21.2443 77.8139 21.2443ZM88.7544 25.7718L88.6696 25.6847L88.5 25.5976L86.1253 16.8039H81.0367L86.3797 32.7371L86.0405 33.7819C85.8709 34.2172 85.6164 34.5655 85.2772 34.8267C84.938 35.0879 84.4291 35.1749 83.6658 35.1749L83.4114 35.0879H83.157L82.5633 38.5705C83.157 38.7447 83.581 38.8317 83.8354 38.8317C84.0899 38.9188 84.4291 38.9188 84.8532 38.9188C86.4646 38.9188 87.6519 38.5705 88.4152 37.7869C89.1785 37.0033 89.7721 36.0456 90.281 34.9137L96.3874 16.891H91.2987L88.7544 25.7718ZM106.48 21.5926C106.904 22.3762 107.073 23.508 107.073 24.814L106.989 24.9011V25.1623C107.073 26.2071 106.904 27.1648 106.48 28.1226C106.141 28.8191 105.547 29.1674 104.699 29.1674C104.275 29.1674 103.766 29.0803 103.342 28.9062C103.003 28.732 102.494 28.1226 102.494 28.1226V21.5055C102.663 21.1572 103.003 20.809 103.342 20.6348C103.681 20.4607 104.19 20.3736 104.699 20.3736C105.462 20.3736 106.141 20.809 106.48 21.5926ZM110.296 30.7346C111.314 29.3415 111.823 27.426 111.823 25.0752V24.9011C111.908 22.8115 111.399 20.7219 110.296 18.9806C109.279 17.5004 107.752 16.7168 105.886 16.7168C104.444 16.6298 103.087 17.4134 102.324 18.7194L102.154 16.978H97.6595V38.6576H102.409V31.257C103.257 32.3018 104.529 32.9112 105.886 32.9112C107.667 32.9112 109.279 32.1276 110.296 30.7346ZM119.625 16.891V12.973L119.541 13.06H114.706V16.978H112.586V20.3736H114.706V27.6002C114.706 29.5156 115.13 30.8216 115.979 31.6923C116.742 32.563 117.929 32.9983 119.541 32.9983C120.558 32.9983 121.576 32.9112 122.509 32.65L122.17 28.9932C121.746 29.0803 121.322 29.0803 120.813 29.0803C120.558 29.0803 120.219 28.9932 119.965 28.732C119.71 28.4708 119.625 28.0355 119.625 27.5131V20.2866H122.254V16.891H119.625ZM128.785 28.0355C128.361 27.2519 128.191 26.2071 128.191 24.9011V24.5528C128.191 23.3339 128.361 22.2891 128.785 21.5055C129.209 20.7219 129.887 20.3736 130.82 20.3736C131.753 20.3736 132.432 20.7219 132.856 21.5055C133.28 22.4632 133.449 23.508 133.449 24.5528V24.9011C133.449 26.2071 133.28 27.2519 132.856 28.0355C132.432 28.8191 131.753 29.1674 130.82 29.1674C129.887 29.1674 129.209 28.8191 128.785 28.0355ZM125.392 18.8935C124.035 20.4607 123.357 22.5503 123.442 24.6399H123.357V24.9882C123.272 27.0778 123.951 29.1674 125.308 30.7346C126.665 32.1276 128.53 32.9112 130.82 32.9112C133.11 32.9112 134.976 32.2147 136.248 30.7346C137.52 29.2544 138.199 27.339 138.199 24.9882V24.6399C138.284 22.5503 137.605 20.4607 136.248 18.8935C134.976 17.4134 133.11 16.6298 130.82 16.6298C128.53 16.6298 126.665 17.4134 125.392 18.8935ZM144.821 16.978L144.814 16.891L144.984 16.978H144.821ZM144.821 16.978H140.489V32.7371H145.238V21.4184C145.747 20.809 146.51 20.4607 147.273 20.4607C148.037 20.4607 148.546 20.6348 148.885 20.9831C149.224 21.3314 149.394 22.0279 149.394 22.8986V32.65H154.143V22.8986C154.143 20.7219 153.719 19.1547 152.871 18.1099C152.023 17.1522 150.836 16.6298 149.309 16.6298C148.461 16.5427 147.613 16.8039 146.849 17.2392C146.086 17.6746 145.492 18.284 144.984 19.0676L144.821 16.978ZM161.861 21.1572C162.2 20.6348 162.709 20.3736 163.387 20.3736C164.151 20.3736 164.575 20.5478 164.914 20.9831C165.253 21.4184 165.423 22.0279 165.423 22.8115V23.1598H161.267C161.352 22.2891 161.522 21.6796 161.861 21.1572ZM158.299 30.7346C159.656 32.2147 161.437 32.9112 163.727 32.9112V32.9983C164.914 32.9983 166.017 32.8242 167.119 32.4759C168.052 32.1276 168.985 31.6923 169.748 31.1699L168.646 28.2096C167.289 28.9062 165.847 29.1674 164.405 29.1674C163.557 29.1674 162.794 28.9062 162.285 28.3838C161.691 27.8614 161.437 27.1648 161.267 26.2942H170.087V23.6822C170.172 21.8538 169.579 19.9383 168.306 18.5452C167.119 17.2392 165.508 16.6298 163.387 16.6298C161.098 16.6298 159.401 17.4134 158.129 18.8935C156.857 20.3736 156.263 22.2891 156.263 24.727V25.2494C156.179 27.2519 156.942 29.2544 158.299 30.7346ZM185.353 26.033H185.268H185.184L182.555 16.891H179.501L176.957 26.033H176.872L175.176 16.891H170.766L174.413 32.65H178.484L181.028 24.2916H181.113L183.657 32.65H187.728L191.375 16.891H186.965L185.353 26.033ZM200.534 27.1648C200.874 27.5131 201.128 28.2096 201.128 28.2096V28.2967C201.128 28.8191 200.958 29.1674 200.619 29.3415C200.28 29.6027 199.771 29.6898 199.177 29.6898C198.414 29.6898 197.82 29.5156 197.396 29.1674C196.972 28.9062 196.718 28.3838 196.718 27.6002L192.393 27.6872C192.393 28.9932 192.986 30.2992 194.174 31.344C195.361 32.4759 196.972 32.9983 199.093 32.9983C200.789 33.0854 202.485 32.563 203.927 31.6052C205.199 30.7346 205.793 29.5156 205.793 28.1226C205.877 26.8166 205.368 25.6847 204.436 24.9011C203.163 24.0304 201.806 23.508 200.28 23.2468C199.432 23.1598 198.668 22.8986 197.905 22.4632C197.566 22.202 197.312 21.8538 197.312 21.4184C197.312 20.9831 197.481 20.6348 197.82 20.3736C198.16 20.0254 198.584 19.9383 199.093 19.9383C199.771 19.9383 200.195 20.1124 200.534 20.4607C200.874 20.809 201.043 21.2443 201.043 21.8538L205.708 21.7667C205.708 20.2866 205.029 18.8935 203.927 18.1099C202.655 17.1522 201.043 16.7168 199.008 16.7168C197.142 16.7168 195.531 17.1522 194.428 18.1099C193.325 18.8935 192.732 20.1995 192.732 21.5926C192.732 22.8115 193.156 23.9434 194.089 24.727C195.276 25.5976 196.718 26.12 198.16 26.3812C199.008 26.4683 199.771 26.7295 200.534 27.1648Z" fill="#171717"/>
</svg>
