<svg width="222" height="52" viewBox="0 0 222 52" fill="none" xmlns="http://www.w3.org/2000/svg">
<path fill-rule="evenodd" clip-rule="evenodd" d="M31.5896 38.4888C28.4235 41.6929 23.1386 43.7818 17.3643 43.7818C7.95296 43.7818 0.472146 38.7346 0.150391 32.5658V12.2168V11.8162C0.150391 5.48721 7.79208 0.279785 17.4447 0.279785C23.7993 0.279785 29.5104 2.84337 32.3258 6.60864H54.7684L51.9531 18.3053H40.6112L38.198 24.7946L50.7465 19.5871L28.4649 51.793L31.5896 38.4888ZM22.4942 41.5051L23.7403 36.3133C21.8334 36.785 19.5722 37.0452 17.4447 36.9721C10.4466 37.0522 4.57453 34.2482 1.75917 30.1624V32.1652C1.92005 37.5329 8.75735 42.1795 17.4447 42.1795C19.095 42.108 20.8733 41.8454 22.4942 41.5051ZM24.1947 34.4204L25.528 28.8657C23.0586 29.7959 20.2846 30.3074 17.4447 30.1624C10.4466 30.3226 4.57453 27.5987 1.75917 23.7532V25.3555C1.92005 30.8834 8.75735 35.3698 17.4447 35.3698C19.7053 35.3698 22.028 34.9991 24.1947 34.4204ZM26.0039 26.8829L27.303 21.4705C24.3955 22.7905 21.0237 23.6821 17.5252 23.7532C10.527 23.593 4.65497 20.8691 1.83961 16.9435V18.5458C2.00048 24.1538 8.83778 28.6402 17.5252 28.5601C20.6075 28.6332 23.5559 27.9727 26.0039 26.8829ZM30.3148 6.60864H19.9384L17.123 18.3053H28.0627L27.8525 19.1813C25.1018 20.9031 21.41 22.0077 17.5252 22.151C8.83778 21.9907 2.00048 17.4242 1.83961 11.7361C1.83961 6.36846 8.83778 1.80195 17.5252 1.80195C22.6732 1.80195 27.4994 3.64451 30.3148 6.60864ZM32.5673 43.3811L34.1761 35.2895L34.0956 35.3696L24.7647 39.3753L30.0737 16.7831H19.134L21.145 8.29104H52.7575L50.7465 16.7831H39.8068L34.9805 28.0792L45.9202 23.2724L32.5673 43.3811ZM77.9347 14.5401C77.9347 15.8219 77.5325 16.8634 76.7281 17.5844C75.9237 18.3055 74.7976 18.706 73.3497 18.706C71.9018 18.706 70.6952 18.2253 69.8908 17.3441C69.006 16.4628 68.6038 15.181 68.6038 13.7389V11.3355C68.6038 9.89347 69.0864 8.69176 69.8908 7.73039C70.7756 6.84913 71.9018 6.36844 73.3497 6.36844C74.7976 6.36844 76.0041 6.76902 76.8085 7.40993C77.6933 8.13096 78.0955 9.17244 78.0151 10.4543H75.6824C75.6824 9.65313 75.5215 9.09233 75.1193 8.69176C74.7171 8.29118 74.154 8.13096 73.3497 8.13096C72.5453 8.13096 72.0626 8.45141 71.6604 9.01221C71.2582 9.57301 71.0169 10.294 71.0169 11.2554V13.6588C71.0169 14.5401 71.2582 15.3412 71.6604 15.902C72.0626 16.4628 72.7061 16.7833 73.4301 16.7833C74.154 16.7833 74.7171 16.6231 75.0389 16.2225C75.3606 15.8219 75.6019 15.2611 75.6019 14.46H77.9347V14.5401ZM91.2875 13.5787C91.2875 15.0208 90.8049 16.3026 89.9201 17.264C89.0352 18.2253 87.7482 18.706 86.3003 18.706C84.8524 18.706 83.6458 18.2253 82.6806 17.264C81.7957 16.3026 81.3131 15.1009 81.3131 13.5787V11.4156C81.3131 9.97358 81.7957 8.77187 82.6806 7.73039C83.5654 6.76902 84.8524 6.28833 86.3003 6.28833C87.7482 6.28833 89.0352 6.76902 89.9201 7.73039C90.8853 8.69176 91.2875 9.89347 91.2875 11.4156V13.5787ZM88.8743 11.4156C88.8743 10.4543 88.633 9.73324 88.1504 9.09233C87.6678 8.53153 87.0242 8.21107 86.2199 8.21107C85.4155 8.21107 84.772 8.53153 84.2893 9.09233C83.8871 9.65313 83.5654 10.4543 83.5654 11.4156V13.5787C83.5654 14.5401 83.8067 15.3412 84.2893 15.902C84.6915 16.4628 85.4155 16.7833 86.2199 16.7833C87.0242 16.7833 87.6678 16.4628 88.1504 15.902C88.633 15.3412 88.8743 14.5401 88.8743 13.5787V11.4156ZM97.5617 18.5458H95.1486V6.52867H97.5617V18.5458ZM111.558 18.5458H109.145L104.319 10.4543V18.5458H101.905V6.52867H104.319L109.145 14.6202V6.52867H111.558V18.5458ZM123.785 8.3713H120.326V18.5458H117.913V8.3713H114.534V6.52867H123.785V8.3713ZM133.84 13.2583H129.335V16.7032H134.644V18.5458H126.922V6.52867H134.644V8.3713H129.335V11.4156H133.84V13.2583ZM140.597 16.7032H145.986V18.5458H138.103V6.52867H140.516V16.7032H140.597ZM156.363 13.2583H151.858V16.7032H157.167V18.5458H149.445V6.52867H157.167V8.3713H151.858V11.4156H156.363V13.2583ZM169.957 16.9435C169.555 17.4242 169.072 17.8248 168.267 18.2253C167.544 18.6259 166.578 18.7861 165.372 18.7861C163.924 18.7861 162.717 18.3055 161.832 17.4242C160.948 16.5429 160.465 15.3412 160.465 13.8992V11.3355C160.465 9.89347 160.948 8.69176 161.832 7.8105C162.717 6.92924 163.924 6.44856 165.291 6.44856C166.739 6.44856 167.946 6.84913 168.67 7.49004C169.394 8.13096 169.876 9.09233 169.796 10.294H167.544C167.544 9.65313 167.383 9.17244 166.98 8.77187C166.578 8.3713 166.096 8.21107 165.372 8.21107C164.648 8.21107 164.085 8.53153 163.602 9.09233C163.2 9.65313 162.959 10.3742 162.959 11.2554V13.8191C162.959 14.7003 163.2 15.5015 163.682 16.0623C164.165 16.6231 164.809 16.9435 165.533 16.9435C166.096 16.9435 166.578 16.9435 166.9 16.7833C167.222 16.7032 167.463 16.5429 167.704 16.3827V14.0594H165.372V12.377H170.118V17.1037L169.957 16.9435ZM176.231 13.7389V18.5458H173.818V6.44856H178.001C179.368 6.44856 180.494 6.76902 181.218 7.40993C182.023 8.05084 182.425 8.9321 182.425 10.0537C182.425 10.6946 182.264 11.1753 181.942 11.656C181.62 12.0566 181.138 12.4571 180.494 12.7776C181.218 13.0179 181.701 13.3384 182.023 13.8191C182.344 14.2997 182.505 14.9407 182.505 15.6617V16.5429C182.505 16.5429 182.505 17.264 182.666 17.5844C182.666 17.985 182.907 18.2253 183.149 18.3856V18.5458H180.655C180.414 18.3856 180.253 18.0651 180.172 17.6645C180.172 17.4643 180.152 17.264 180.132 17.0637C180.112 16.8634 180.092 16.6631 180.092 16.4628V15.5816C180.092 15.0208 179.931 14.5401 179.609 14.2196C179.288 13.8992 178.805 13.7389 178.242 13.7389H176.231ZM178.001 11.8963H176.311V8.45141H178.081C178.725 8.45141 179.207 8.61164 179.529 8.9321C179.851 9.25256 180.012 9.65313 180.012 10.2139C180.012 10.7747 179.851 11.1753 179.529 11.4958C179.207 11.7361 178.644 11.8963 178.001 11.8963ZM188.779 15.9821H192.665L193.445 18.5458H196.019L191.997 6.52867H189.503L185.401 18.5458H187.975L188.779 15.9821ZM189.503 14.0594H192.158L190.871 9.81335L189.503 14.0594ZM201.489 14.1395V18.4657H199.076V6.52867H203.741C205.108 6.52867 206.235 6.92924 207.039 7.57016C207.843 8.29119 208.246 9.25255 208.246 10.3742C208.246 11.4958 207.843 12.4571 207.039 13.1782C206.235 13.8992 205.189 14.2196 203.741 14.2196H201.569L201.489 14.1395ZM201.489 12.2969H203.661C204.304 12.2969 204.867 12.1367 205.189 11.7361C205.511 11.3355 205.672 10.8548 205.672 10.3742C205.672 9.81335 205.511 9.33267 205.189 8.9321C204.867 8.53153 204.304 8.3713 203.661 8.3713H201.489V12.2969ZM221.438 18.4657H219.024V13.4986H214.118V18.4657H211.704V6.44856H214.118V11.656H219.024V6.44856H221.438V18.4657ZM71.419 38.1739H72.9473V30.2426H75.6823V28.9607H68.6841V30.2426H71.419V38.1739ZM81.5543 38.1739H83.0826L83.1631 38.0938V33.5272C83.1631 31.8448 82.2782 30.9636 80.589 30.9636C80.1064 30.9636 79.7042 31.1238 79.302 31.284C78.8998 31.5244 78.4172 32.0852 78.4172 32.0852H78.3367V30.8034V28.3198H76.8888V38.0938H78.3367V34.6488C78.4172 33.7676 78.4976 33.2068 78.8194 32.8062C79.1411 32.4056 79.5433 32.2454 80.1868 32.2454C80.6695 32.2454 80.9912 32.4056 81.2325 32.646C81.4739 32.8863 81.5543 33.2869 81.5543 33.8477V38.1739ZM85.6567 37.2926C86.3002 37.9335 87.1046 38.254 88.2307 38.254L88.1503 38.3341C88.416 38.3341 88.6817 38.3098 88.9205 38.288C89.1155 38.2702 89.2927 38.254 89.4373 38.254C89.8395 38.1739 90.5634 37.8534 90.5634 37.8534V36.6517C90.4431 36.6996 90.33 36.7547 90.2198 36.8084C89.9616 36.9342 89.7192 37.0523 89.4373 37.0523C89.1155 37.1324 88.7133 37.1324 88.3112 37.1324C87.7481 37.1324 87.185 36.9722 86.8633 36.5716C86.5415 36.2511 86.3002 35.6903 86.3002 35.0494H90.9656V34.2483C90.9656 33.2068 90.7243 32.4858 90.1612 31.925C89.6786 31.3642 88.8742 31.0437 87.9894 31.0437C87.0241 31.0437 86.2197 31.3642 85.6567 32.0051C85.0936 32.646 84.7719 33.5272 84.7719 34.6488C84.7719 35.7704 85.0132 36.6517 85.6567 37.2926ZM86.8633 32.5659C87.1046 32.3255 87.5068 32.1653 87.9894 32.1653C88.472 32.1653 88.8742 32.2454 89.1155 32.5659C89.3569 32.8062 89.5177 33.2869 89.5177 33.8477H86.3806C86.4611 33.2869 86.6219 32.8062 86.8633 32.5659ZM97.8029 32.2454H99.4117V31.1238H97.7225V30.7232C97.7225 30.3227 97.8029 30.0823 97.9638 29.842C98.1247 29.6017 98.366 29.5215 98.6878 29.5215C99.0095 29.5215 99.7335 29.6818 99.7335 29.6818L100.136 28.5602C99.653 28.3198 99.09 28.3198 98.6073 28.3198C97.8029 28.3198 97.2399 28.4801 96.8377 28.8806C96.4355 29.2812 96.2746 29.9221 96.2746 30.7232V31.1238L95.1485 31.5244V32.2454H96.2746V38.0938H97.8029V32.2454ZM105.364 37.2125L105.606 38.0938L105.686 38.1739H106.893V31.2039H105.364V34.729C105.284 35.6102 105.203 36.171 104.882 36.5716C104.56 36.9722 104.158 37.1324 103.514 37.1324C103.031 37.1324 102.71 36.9722 102.468 36.7318C102.227 36.4114 102.147 36.0909 102.147 35.5301V31.2039H100.618V35.7704C100.618 36.6517 100.86 37.2926 101.262 37.6932C101.744 38.0938 102.308 38.3341 103.192 38.3341C103.675 38.3341 104.077 38.1739 104.479 38.0136C104.882 37.7733 105.364 37.2125 105.364 37.2125ZM112.604 36.8119C112.201 36.9722 111.478 36.9722 111.478 36.9722H111.397C111.156 36.9722 110.834 36.892 110.754 36.7318C110.512 36.5716 110.512 36.3312 110.512 35.9307V32.1653H112.523V31.0437H110.512V29.5215H109.627L109.145 30.9636L108.099 31.5244V32.1653H109.064V35.9307C109.064 37.3727 109.788 38.0938 111.156 38.0938H111.96C112.201 38.0938 112.604 37.9335 112.604 37.9335V36.8119ZM118.637 37.2125L118.878 38.0938L118.958 38.1739H120.165V31.2039H118.637V34.729C118.556 35.6102 118.476 36.171 118.154 36.5716C117.832 36.9722 117.43 37.1324 116.787 37.1324C116.304 37.1324 115.982 36.9722 115.741 36.7318C115.499 36.4114 115.419 36.0909 115.419 35.5301V31.2039H113.891V35.7704C113.891 36.6517 114.132 37.2926 114.534 37.6932C115.017 38.0938 115.58 38.3341 116.465 38.3341C116.947 38.3341 117.35 38.1739 117.752 38.0136C118.154 37.7733 118.637 37.2125 118.637 37.2125ZM126.439 30.9636H125.715L125.635 30.8835C125.152 30.8835 124.75 31.0437 124.428 31.284C124.106 31.5244 123.785 31.8448 123.543 32.2454L123.382 31.0437H122.176V38.0136H123.624V34.4085C123.624 33.7676 123.785 33.2869 124.187 32.8863C124.589 32.4858 125.072 32.3255 125.635 32.3255H126.278L126.439 30.9636ZM127.968 37.2125C128.611 37.8534 129.415 38.1739 130.542 38.1739L130.461 38.254C130.713 38.254 130.944 38.2321 131.164 38.2112C131.364 38.1921 131.556 38.1739 131.748 38.1739C132.15 38.0938 132.874 37.7733 132.874 37.7733V36.5716C132.754 36.6195 132.641 36.6746 132.531 36.7283C132.272 36.8541 132.03 36.9722 131.748 36.9722C131.426 37.0523 131.024 37.0523 130.622 37.0523C130.059 37.0523 129.496 36.892 129.174 36.4915C128.852 36.171 128.611 35.6102 128.611 34.9693H133.276V34.1682C133.276 33.1267 133.035 32.4056 132.472 31.8448C131.989 31.284 131.185 30.9636 130.3 30.9636C129.335 30.9636 128.531 31.284 127.968 31.925C127.404 32.5659 127.083 33.4471 127.083 34.5687C127.083 35.6903 127.324 36.5716 127.968 37.2125ZM129.174 32.4858C129.415 32.2454 129.818 32.0852 130.3 32.0852C130.783 32.0852 131.105 32.1653 131.426 32.4858C131.668 32.7261 131.829 33.2068 131.829 33.7676H128.691C128.772 33.2068 128.852 32.8062 129.174 32.4858ZM143.653 37.2125C144.216 36.5716 144.538 35.6903 144.538 34.5687L144.618 34.4886C144.618 33.367 144.297 32.4858 143.734 31.8448C143.09 31.2039 142.286 30.8835 141.32 30.8835C140.194 30.8835 139.39 31.2039 138.827 31.8448C138.264 32.4858 137.942 33.367 137.942 34.4886C137.942 35.2096 138.103 35.8506 138.344 36.4114C138.585 36.9722 138.907 37.3727 139.47 37.6932C140.033 38.0136 140.596 38.1739 141.24 38.1739C142.286 38.1739 143.09 37.8534 143.653 37.2125ZM141.24 36.9722C140.033 36.9722 139.47 36.171 139.47 34.5687C139.47 33.7676 139.551 33.2068 139.872 32.8062C140.194 32.4056 140.596 32.1653 141.24 32.1653C142.447 32.1653 143.01 32.9664 143.01 34.5687C143.01 36.171 142.447 36.9722 141.24 36.9722ZM148.077 32.2454H149.686V31.1238H147.997V30.7232C147.997 30.3227 148.077 30.0022 148.238 29.842C148.399 29.6017 148.64 29.5215 148.962 29.5215C149.284 29.5215 150.008 29.6818 150.008 29.6818L150.41 28.5602C149.927 28.3198 149.364 28.3198 148.882 28.3198C148.077 28.3198 147.514 28.4801 147.112 28.8806C146.71 29.2812 146.549 29.9221 146.549 30.7232V31.1238L145.423 31.5244V32.2454H146.549V38.0938H148.077V32.2454ZM158.695 38.0938H160.223L160.143 38.0136H160.223V34.3284C160.223 33.5272 160.384 33.0466 160.626 32.646C160.947 32.2454 161.35 32.0852 161.913 32.0852C162.395 32.0852 162.637 32.2454 162.878 32.4858C163.119 32.8062 163.2 33.1267 163.2 33.6875V38.0136H164.648V33.4471C164.648 32.5659 164.487 31.925 164.085 31.5244C163.682 31.1238 163.119 30.8835 162.234 30.8835C161.752 30.8835 161.35 31.0437 160.947 31.2039C160.545 31.3642 160.063 32.0051 160.063 32.0051H159.982C159.58 31.284 158.856 30.8835 157.81 30.8835C157.408 30.8835 157.006 30.9636 156.604 31.1238C156.202 31.3642 155.719 31.925 155.719 31.925L155.478 31.0437H154.271V38.0136H155.719V34.5687C155.719 33.6875 155.88 33.1267 156.121 32.7261C156.443 32.3255 156.845 32.1653 157.408 32.1653C157.891 32.1653 158.213 32.3255 158.373 32.5659C158.615 32.8863 158.695 33.2068 158.695 33.7676V38.0938ZM172.048 37.2125C172.611 36.5716 172.933 35.6903 172.933 34.5687L173.013 34.4886C173.013 33.367 172.691 32.4858 172.128 31.8448C171.485 31.2039 170.681 30.8835 169.715 30.8835C168.589 30.8835 167.785 31.2039 167.222 31.8448C166.659 32.4858 166.337 33.367 166.337 34.4886C166.337 35.2096 166.498 35.8506 166.739 36.4114C166.98 36.9722 167.383 37.3727 167.865 37.6932C168.428 38.0136 168.991 38.1739 169.635 38.1739C170.681 38.1739 171.485 37.8534 172.048 37.2125ZM169.635 36.9722C168.428 36.9722 167.865 36.171 167.865 34.5687C167.865 33.7676 167.946 33.2068 168.267 32.8062C168.589 32.4056 168.991 32.1653 169.635 32.1653C170.841 32.1653 171.404 32.9664 171.404 34.5687C171.404 36.171 170.841 36.9722 169.635 36.9722ZM179.287 38.0938H180.816V37.9335V33.4471C180.816 31.7647 180.011 30.8835 178.322 30.8835C177.84 30.8835 177.437 30.9636 177.035 31.1238C176.633 31.3642 176.15 31.925 176.15 31.925L175.909 31.0437H174.702V38.0136H176.15V34.5687C176.15 33.6875 176.311 33.1267 176.553 32.7261C176.794 32.3255 177.277 32.1653 177.92 32.1653C178.403 32.1653 178.724 32.3255 178.966 32.5659C179.207 32.8062 179.287 33.2068 179.287 33.7676V38.0938ZM183.39 37.2125C184.033 37.8534 184.838 38.1739 185.964 38.1739L185.883 38.254C186.136 38.254 186.366 38.2321 186.586 38.2112C186.787 38.1921 186.979 38.1739 187.17 38.1739C187.573 38.0938 188.297 37.7733 188.297 37.7733V36.5716C188.183 36.6168 188.07 36.6684 187.958 36.7192C187.674 36.8483 187.401 36.9722 187.17 36.9722C186.849 37.0523 186.447 37.0523 186.044 37.0523C185.481 37.0523 184.918 36.892 184.596 36.4915C184.275 36.171 184.033 35.6102 184.033 34.9693H188.699V34.1682C188.699 33.1267 188.458 32.4056 187.894 31.8448C187.412 31.284 186.607 30.9636 185.723 30.9636C184.757 30.9636 183.953 31.284 183.39 31.925C182.827 32.5659 182.505 33.4471 182.505 34.5687C182.505 35.6903 182.746 36.5716 183.39 37.2125ZM184.516 32.4858C184.757 32.2454 185.16 32.0852 185.642 32.0852C186.125 32.0852 186.527 32.1653 186.768 32.4858C187.01 32.7261 187.17 33.2068 187.17 33.7676H184.033C184.114 33.2068 184.194 32.8062 184.516 32.4858ZM189.04 31.1238H189.021L188.94 30.8835L189.04 31.1238ZM189.04 31.1238L191.836 37.8534L191.595 38.4943C191.273 39.3756 190.79 39.7762 190.066 39.7762H189.262V40.9779C189.584 41.058 189.905 41.058 190.227 41.058C191.514 41.058 192.399 40.337 192.962 38.8949L195.938 31.0437H194.33C194.095 31.7244 193.885 32.3343 193.699 32.8722C193.119 34.5501 192.782 35.5278 192.721 35.7704C192.56 36.171 192.479 36.6517 192.479 36.6517C192.479 36.171 192.319 35.6102 192.077 35.0494L190.629 31.1238H189.04Z" fill="#171717"/>
</svg>
