<svg width="199" height="48" viewBox="0 0 199 48" fill="none" xmlns="http://www.w3.org/2000/svg">
<path fill-rule="evenodd" clip-rule="evenodd" d="M0.149273 33.6735C0.193881 34.2887 0.238488 34.9039 0.238488 35.4751V35.563H0.952207C1.17524 35.2554 1.35367 34.9698 1.5321 34.6842C1.71053 34.3986 1.88896 34.113 2.112 33.8054C5.25287 29.3768 8.47877 24.9064 11.6723 20.4809L11.6729 20.48C13.1054 18.4948 14.5314 16.5187 15.9403 14.5595C16.2079 14.2958 16.8324 13.8564 16.8324 13.8564H25.0402C18.8844 22.3809 12.8178 30.8174 6.84038 39.1661C6.84038 39.254 7.01881 39.4297 7.01881 39.4297C8.65755 40.316 10.3079 41.225 11.9698 42.1405L11.9703 42.1408L11.971 42.1412C14.9229 43.7672 17.9114 45.4133 20.9363 46.9875C21.3824 47.2511 22.2745 47.2511 22.7206 46.9875C26.5368 44.7857 30.3863 42.6168 34.2487 40.4405L34.2499 40.4399L34.2509 40.4393L34.2511 40.4392C36.7086 39.0545 39.1714 37.6669 41.6342 36.266C42.3479 35.8266 42.7939 35.1236 42.7939 34.2448C42.8217 33.5348 42.858 32.8079 42.8949 32.0693C42.9768 30.4308 43.0616 28.7347 43.0616 27.0385C43.0317 25.6263 43.0118 24.2043 42.9919 22.7789V22.7788V22.7787V22.7785V22.7784V22.7783V22.7781C42.9524 19.9463 42.9126 17.1016 42.7939 14.2958C42.7939 13.417 42.7047 12.714 42.5263 11.6594C42.1694 12.0988 42.0802 12.1867 41.9018 12.3625C38.4225 17.3057 34.7926 22.3972 31.1627 27.4887C29.9527 29.186 28.7427 30.8833 27.5382 32.575C27.0921 33.1902 26.6461 33.4538 25.9323 33.4538H19.3305C19.1966 33.4538 19.0405 33.4099 18.8844 33.366C18.7283 33.322 18.5721 33.2781 18.4383 33.2781C23.5359 26.0084 28.6983 18.8026 33.8149 11.6608L33.8157 11.6597L33.8161 11.6591L33.8218 11.6512L33.8405 11.6251L33.8762 11.5753L33.8829 11.5659C34.7433 10.3649 35.6024 9.16578 36.4597 7.96843C36.3508 7.86114 36.2862 7.76841 36.2359 7.69615C36.1625 7.59084 36.1194 7.52902 36.0136 7.52902C34.497 6.7088 32.9803 5.86905 31.4637 5.0293C28.4304 3.3498 25.3971 1.67031 22.3638 0.147042C21.7393 0.0591611 20.9363 0.0591611 20.3118 0.322803C17.6736 1.75401 15.0354 3.23364 12.3972 4.71326L12.3971 4.71328L12.3971 4.71331C8.87952 6.68612 5.36194 8.65894 1.84435 10.517C0.506133 11.3079 0.0600586 12.2746 0.0600586 13.5928V31.872C0.0600586 32.4432 0.104666 33.0584 0.149273 33.6735ZM162.877 28.5325C162.966 25.896 161.985 24.0505 159.487 22.996C159.535 22.9724 159.576 22.9552 159.614 22.9392C159.719 22.8955 159.802 22.861 159.933 22.7323C161.896 21.6778 162.609 19.8323 162.163 17.811C161.717 15.8776 160.2 14.7352 158.327 14.4715C156.963 14.1916 155.49 14.1613 154 14.1308C153.152 14.1134 152.299 14.0959 151.457 14.0321H146.907C146.729 14.3837 146.729 14.6473 146.729 14.6473V32.1356C146.729 33.0144 147.175 33.0144 147.8 33.0144H155.561C156.721 33.0144 157.702 33.0144 158.773 32.7507C161.003 32.1356 162.698 30.378 162.877 28.5325ZM153.146 29.2752L153.146 29.2752L153.145 29.2752C152.531 29.2555 151.91 29.2355 151.279 29.2355C151.279 27.9466 151.283 26.6557 151.457 25.2809C153.242 25.2809 155.115 25.3688 156.9 25.5445C157.881 25.6324 158.505 26.3354 158.505 27.39C158.327 28.3567 157.613 29.0598 156.721 29.2355C155.538 29.3521 154.355 29.314 153.146 29.2752ZM152.885 21.6289C152.35 21.6094 151.814 21.5899 151.279 21.5899H151.19V17.811C151.728 17.811 152.277 17.7912 152.822 17.7716C153.903 17.7327 154.969 17.6942 155.918 17.811C156.81 17.9868 157.702 18.4262 157.702 19.5686C157.702 20.7111 157.256 21.4141 156.097 21.5899C155.026 21.7071 153.955 21.668 152.885 21.6289ZM110.151 14.2082C110.954 16.7569 111.735 19.2836 112.516 21.8103L112.516 21.8106L112.516 21.8112L112.516 21.8118L112.516 21.8123L112.517 21.8129C113.297 24.3385 114.077 26.864 114.88 29.4115H115.147C115.95 26.863 116.731 24.3364 117.512 21.8099C118.292 19.2833 119.073 16.7567 119.876 14.2082H122.641C122.023 15.9547 121.443 17.7012 120.865 19.439C120.193 21.4613 119.525 23.4718 118.805 25.4569C118.543 26.2629 118.258 27.0571 117.97 27.8568C117.473 29.2369 116.97 30.6335 116.575 32.1358C116.345 33.2669 115.525 33.2334 114.733 33.2011C114.601 33.1957 114.471 33.1904 114.345 33.1904C113.631 33.1904 113.185 32.9268 113.006 32.1358C111.668 27.4782 110.241 22.9962 108.635 17.987C108.01 19.5689 107.564 21.0629 107.207 22.2932C106.672 23.9629 106.159 25.5887 105.646 27.2145C105.133 28.8403 104.62 30.4661 104.085 32.1358C103.906 32.8389 103.46 33.1904 102.747 33.1904C102.525 33.1358 102.269 33.1575 102.013 33.1791C101.446 33.2272 100.879 33.2751 100.695 32.4874C99.6687 29.4555 98.6873 26.4456 97.706 23.4357C96.7246 20.4257 95.7432 17.4158 94.7173 14.3839C94.8218 14.3839 94.8651 14.3236 94.901 14.2737C94.9263 14.2383 94.948 14.2082 94.9849 14.2082C97.4829 14.0324 97.6614 14.0324 98.3751 16.4052C98.5347 16.9083 98.6943 17.4102 98.8536 17.9112C100.03 21.61 101.19 25.257 102.211 28.9721C102.211 29.056 102.252 29.1198 102.304 29.2018C102.361 29.2917 102.432 29.4035 102.479 29.5873C103.219 27.1085 103.986 24.6834 104.751 22.2675L104.751 22.2674L104.751 22.2673L104.751 22.2671L104.751 22.267L104.751 22.2668C105.369 20.3148 105.985 18.3687 106.583 16.4052C106.744 15.9696 106.862 15.6152 106.958 15.3276C107.173 14.6856 107.277 14.376 107.491 14.2363C107.691 14.1062 107.987 14.1237 108.558 14.1576C108.928 14.1795 109.413 14.2082 110.062 14.2082H110.151ZM197.492 28.357L197.492 28.3565C197.091 27.9173 196.689 27.478 196.243 27.0388C191.961 29.9388 189.285 29.9388 186.965 27.2145C185.181 25.1054 185.359 21.5902 187.233 19.5689C188.125 18.5143 189.285 17.9871 190.623 17.8113C192.853 17.4598 194.638 18.5143 196.243 20.0962C196.446 19.8561 196.65 19.6207 196.85 19.3876L196.854 19.3841L196.855 19.3823L196.856 19.3814C197.536 18.593 198.192 17.8327 198.741 17.0204C194.994 12.8021 187.946 12.7142 184.021 16.581C180.185 20.5356 180.185 27.2145 184.913 31.0813C189.017 34.4208 195.262 33.8935 198.741 29.6752C198.295 29.2359 197.894 28.7967 197.493 28.3574L197.492 28.357ZM60.5479 18.9538V33.0147H57.8715V14.2961C59.6557 13.8567 60.8155 14.2961 61.7969 15.7022C63.6623 18.4289 65.6901 21.1555 67.7981 23.99L67.7982 23.9901L67.7984 23.9905C68.8156 25.3583 69.8515 26.7512 70.8968 28.1813V14.1204H73.5732V32.7511C71.6997 33.3663 71.2537 33.0147 70.1831 31.6086C69.7064 30.9647 69.2318 30.3248 68.7593 29.6878L68.7403 29.6623L68.7181 29.6323L68.7109 29.6226C66.1051 26.1096 63.5625 22.6819 61.0832 19.1296C60.9981 19.1296 60.9333 19.0896 60.85 19.0382C60.7587 18.9819 60.6453 18.9119 60.4587 18.8659L60.5479 18.9538ZM81.5132 24.7536H90.6131L90.5239 24.6657V24.6656C90.5239 23.7868 90.5239 22.9959 90.7023 21.9414H81.6024V16.317H91.8621V14.0321H78.8368V32.8386H92.0406V30.378H81.5132V24.7536ZM180.363 14.0323L180.541 14.296C180.72 16.6981 179.59 17.8991 177.151 17.8991H174.921V32.8388H170.549V17.8991H165.999C164.929 17.8991 164.661 17.6355 164.661 16.5809C164.661 14.8233 165.553 13.9445 167.338 13.9445H180.363V14.0323ZM124.44 29.2498C124.291 29.5216 124.135 29.8074 123.979 30.1146H123.801C126.477 32.5753 129.6 33.542 133.079 33.2783C135.22 33.0147 137.183 31.9601 137.897 29.9389C138.967 27.0388 138.343 24.5782 134.685 23.1721C133.793 22.8205 132.923 22.491 132.053 22.1615C131.184 21.8319 130.314 21.5023 129.421 21.1508C128.351 20.7114 127.816 19.9205 128.083 18.8659C128.351 18.1629 129.065 17.5477 129.689 17.1083C130.135 16.8446 130.849 16.6689 131.473 16.8446C132.61 17.0126 133.747 17.3234 134.907 17.6404C135.568 17.8209 136.236 18.0034 136.915 18.1629C137.119 17.8119 137.294 17.4323 137.489 17.0079C137.636 16.6883 137.794 16.3433 137.986 15.9658C135.22 14.384 132.276 13.6809 129.065 14.5597C126.745 15.087 125.318 16.6689 125.139 18.4265C124.871 21.5023 126.031 22.9084 128.529 23.963C129.133 24.1728 129.751 24.3687 130.377 24.5674C131.324 24.8678 132.291 25.1745 133.258 25.5448C134.239 25.9842 135.131 26.5115 135.31 27.8297C135.488 29.2358 134.239 30.3783 132.366 30.554C129.511 30.7298 127.191 29.6752 125.139 27.8297C124.965 28.287 124.716 28.7442 124.44 29.2498Z" fill="#171717"/>
</svg>
