<svg width="795" height="20" viewBox="0 0 795 20" fill="none" xmlns="http://www.w3.org/2000/svg">
<path opacity="0.85" d="M790.648 19.9695C795.277 19.5545 795.261 13.0563 790.626 12.7117C743.274 9.19154 690.221 6.32092 633.191 4.20308C558.468 1.42821 478.38 -1.64233e-06 397.5 0C316.62 1.64233e-06 236.532 1.42821 161.809 4.20309C104.779 6.32093 51.726 9.19156 4.37386 12.7117C-0.261017 13.0563 -0.276672 19.5545 4.35243 19.9695C4.57892 19.9898 4.80497 19.9899 5.03146 19.9697C56.5449 15.3593 117.664 11.7014 184.914 9.204C252.312 6.70115 324.549 5.41295 397.5 5.41294C470.451 5.41294 542.688 6.70114 610.086 9.20399C677.336 11.7014 738.455 15.3593 789.969 19.9697C790.195 19.9899 790.421 19.9898 790.648 19.9695Z" fill="url(#paint0_linear_1010_1810)"/>
<defs>
<linearGradient id="paint0_linear_1010_1810" x1="-55.265" y1="6.72354" x2="-45.6489" y2="98.4564" gradientUnits="userSpaceOnUse">
<stop stop-color="#FF9709"/>
<stop offset="0.37" stop-color="#9022FF"/>
<stop offset="0.65" stop-color="#FE950C"/>
<stop offset="0.945" stop-color="#C65466"/>
</linearGradient>
</defs>
</svg>
