<svg width="403" height="342" viewBox="0 0 403 342" fill="none" xmlns="http://www.w3.org/2000/svg">
<path d="M200.814 340.498C285.294 340.498 353.779 272.013 353.779 187.533C353.779 103.053 285.294 34.5686 200.814 34.5686C116.333 34.5686 47.8486 103.053 47.8486 187.533C47.8486 272.013 116.333 340.498 200.814 340.498Z" stroke="#878787" stroke-width="2" stroke-linecap="round" stroke-linejoin="round" stroke-dasharray="8 8"/>
<path d="M199.955 278.065C250.429 278.065 291.347 237.147 291.347 186.673C291.347 136.198 250.429 95.2805 199.955 95.2805C149.48 95.2805 108.562 136.198 108.562 186.673C108.562 237.147 149.48 278.065 199.955 278.065Z" stroke="#878787" stroke-width="2" stroke-linecap="round" stroke-linejoin="round"/>
<path d="M316.885 87.9911L349.362 55.5139H401.5" stroke="#878787" stroke-width="2" stroke-linecap="round" stroke-linejoin="round" stroke-dasharray="8 8"/>
<path d="M306 299.839L323.362 327.514H375.5" stroke="#878787" stroke-width="2" stroke-linecap="round" stroke-linejoin="round" stroke-dasharray="8 8"/>
<path d="M86.0762 288.661L67.2735 315.645H14.1205" stroke="#878787" stroke-width="2" stroke-linecap="round" stroke-linejoin="round" stroke-dasharray="8 8"/>
<path d="M63.419 120.161L45.2043 101.946H1.5" stroke="#878787" stroke-width="2" stroke-linecap="round" stroke-linejoin="round" stroke-dasharray="8 8"/>
<path d="M141.249 45.9805L123.034 27.7659H79.3301" stroke="#878787" stroke-width="2" stroke-linecap="round" stroke-linejoin="round" stroke-dasharray="8 8"/>
<path d="M7.65266 93.0191V91.4531H10.5327V82.4891L8.28266 83.8931L7.52666 82.5071L11.0727 80.3291H12.3867V91.4531H15.0867V93.0191H7.65266ZM21.9376 93.1811C21.1216 93.1811 20.3296 93.0551 19.5616 92.8031C18.8056 92.5391 18.1756 92.1731 17.6716 91.7051L18.3016 90.2651C19.4056 91.1531 20.6056 91.5971 21.9016 91.5971C22.7296 91.5971 23.3776 91.3751 23.8456 90.9311C24.3136 90.4751 24.5476 89.8811 24.5476 89.1491C24.5476 88.3931 24.3256 87.7751 23.8816 87.2951C23.4376 86.8151 22.8196 86.5751 22.0276 86.5751C20.9116 86.5751 20.0176 87.0371 19.3456 87.9611H18.0496V80.3291H25.6096V81.8951H19.8676V85.9091C20.5396 85.3211 21.3916 85.0271 22.4236 85.0271C23.2276 85.0271 23.9236 85.1951 24.5116 85.5311C25.0996 85.8671 25.5556 86.3411 25.8796 86.9531C26.2036 87.5531 26.3656 88.2551 26.3656 89.0591C26.3656 89.8751 26.1856 90.5951 25.8256 91.2191C25.4656 91.8311 24.9556 92.3111 24.2956 92.6591C23.6356 93.0071 22.8496 93.1811 21.9376 93.1811ZM32.4606 93.4871L31.2366 92.7671L38.6706 79.8611L39.8946 80.5811L32.4606 93.4871ZM31.1646 87.9251C30.1806 87.9251 29.4126 87.5831 28.8606 86.8991C28.3086 86.2031 28.0326 85.2491 28.0326 84.0371C28.0326 82.8251 28.3086 81.8771 28.8606 81.1931C29.4246 80.5091 30.1926 80.1671 31.1646 80.1671C32.1366 80.1671 32.8986 80.5091 33.4506 81.1931C34.0146 81.8771 34.2966 82.8251 34.2966 84.0371C34.2966 85.2491 34.0206 86.2031 33.4686 86.8991C32.9166 87.5831 32.1486 87.9251 31.1646 87.9251ZM31.1646 86.6471C31.6686 86.6471 32.0586 86.4311 32.3346 85.9991C32.6226 85.5671 32.7666 84.9131 32.7666 84.0371C32.7666 83.1611 32.6226 82.5071 32.3346 82.0751C32.0586 81.6431 31.6686 81.4271 31.1646 81.4271C30.6606 81.4271 30.2646 81.6431 29.9766 82.0751C29.7006 82.5071 29.5626 83.1611 29.5626 84.0371C29.5626 84.9251 29.7006 85.5851 29.9766 86.0171C30.2646 86.4371 30.6606 86.6471 31.1646 86.6471ZM39.9666 93.1811C38.9946 93.1811 38.2326 92.8391 37.6806 92.1551C37.1286 91.4711 36.8526 90.5171 36.8526 89.2931C36.8526 88.0931 37.1286 87.1511 37.6806 86.4671C38.2326 85.7711 38.9946 85.4231 39.9666 85.4231C40.9506 85.4231 41.7186 85.7711 42.2706 86.4671C42.8226 87.1511 43.0986 88.0931 43.0986 89.2931C43.0986 90.5171 42.8226 91.4711 42.2706 92.1551C41.7186 92.8391 40.9506 93.1811 39.9666 93.1811ZM39.9666 91.9211C40.4706 91.9211 40.8606 91.7051 41.1366 91.2731C41.4246 90.8411 41.5686 90.1811 41.5686 89.2931C41.5686 88.4291 41.4246 87.7811 41.1366 87.3491C40.8606 86.9171 40.4706 86.7011 39.9666 86.7011C39.4626 86.7011 39.0666 86.9171 38.7786 87.3491C38.5026 87.7691 38.3646 88.4171 38.3646 89.2931C38.3646 90.1811 38.5026 90.8411 38.7786 91.2731C39.0666 91.7051 39.4626 91.9211 39.9666 91.9211Z" fill="#171717"/>
<path d="M86.354 18.8391V17.2731H89.234V8.30911L86.984 9.71311L86.228 8.32711L89.774 6.14911H91.088V17.2731H93.788V18.8391H86.354ZM100.441 19.0011C98.965 19.0011 97.837 18.4431 97.057 17.3271C96.289 16.1991 95.905 14.5851 95.905 12.4851C95.905 10.3491 96.289 8.73511 97.057 7.64311C97.837 6.53911 98.965 5.98711 100.441 5.98711C101.929 5.98711 103.057 6.53911 103.825 7.64311C104.593 8.73511 104.977 10.3431 104.977 12.4671C104.977 14.5791 104.587 16.1991 103.807 17.3271C103.039 18.4431 101.917 19.0011 100.441 19.0011ZM100.441 17.4531C101.353 17.4531 102.031 17.0511 102.475 16.2471C102.919 15.4431 103.141 14.1831 103.141 12.4671C103.141 10.7511 102.919 9.50311 102.475 8.72311C102.043 7.93111 101.365 7.53511 100.441 7.53511C99.529 7.53511 98.851 7.93111 98.407 8.72311C97.963 9.51511 97.741 10.7631 97.741 12.4671C97.741 14.1831 97.963 15.4431 98.407 16.2471C98.851 17.0511 99.529 17.4531 100.441 17.4531ZM111.162 19.3071L109.938 18.5871L117.372 5.68111L118.596 6.40111L111.162 19.3071ZM109.866 13.7451C108.882 13.7451 108.114 13.4031 107.562 12.7191C107.01 12.0231 106.734 11.0691 106.734 9.85711C106.734 8.64511 107.01 7.69711 107.562 7.01311C108.126 6.32911 108.894 5.98711 109.866 5.98711C110.838 5.98711 111.6 6.32911 112.152 7.01311C112.716 7.69711 112.998 8.64511 112.998 9.85711C112.998 11.0691 112.722 12.0231 112.17 12.7191C111.618 13.4031 110.85 13.7451 109.866 13.7451ZM109.866 12.4671C110.37 12.4671 110.76 12.2511 111.036 11.8191C111.324 11.3871 111.468 10.7331 111.468 9.85711C111.468 8.98111 111.324 8.32711 111.036 7.89511C110.76 7.46311 110.37 7.24711 109.866 7.24711C109.362 7.24711 108.966 7.46311 108.678 7.89511C108.402 8.32711 108.264 8.98111 108.264 9.85711C108.264 10.7451 108.402 11.4051 108.678 11.8371C108.966 12.2571 109.362 12.4671 109.866 12.4671ZM118.668 19.0011C117.696 19.0011 116.934 18.6591 116.382 17.9751C115.83 17.2911 115.554 16.3371 115.554 15.1131C115.554 13.9131 115.83 12.9711 116.382 12.2871C116.934 11.5911 117.696 11.2431 118.668 11.2431C119.652 11.2431 120.42 11.5911 120.972 12.2871C121.524 12.9711 121.8 13.9131 121.8 15.1131C121.8 16.3371 121.524 17.2911 120.972 17.9751C120.42 18.6591 119.652 19.0011 118.668 19.0011ZM118.668 17.7411C119.172 17.7411 119.562 17.5251 119.838 17.0931C120.126 16.6611 120.27 16.0011 120.27 15.1131C120.27 14.2491 120.126 13.6011 119.838 13.1691C119.562 12.7371 119.172 12.5211 118.668 12.5211C118.164 12.5211 117.768 12.7371 117.48 13.1691C117.204 13.5891 117.066 14.2371 117.066 15.1131C117.066 16.0011 117.204 16.6611 117.48 17.0931C117.768 17.5251 118.164 17.7411 118.668 17.7411Z" fill="#171717"/>
<path d="M358.877 45.8224V44.4364L363.107 39.9004C363.695 39.2644 364.115 38.6884 364.367 38.1724C364.631 37.6564 364.763 37.1344 364.763 36.6064C364.763 35.2384 363.959 34.5544 362.351 34.5544C361.127 34.5544 360.029 35.0164 359.057 35.9404L358.391 34.5184C358.871 34.0504 359.483 33.6784 360.227 33.4024C360.971 33.1144 361.745 32.9704 362.549 32.9704C363.857 32.9704 364.859 33.2704 365.555 33.8704C366.263 34.4704 366.617 35.3284 366.617 36.4444C366.617 37.2004 366.431 37.9384 366.059 38.6584C365.699 39.3784 365.129 40.1464 364.349 40.9624L361.217 44.2564H367.121V45.8224H358.877ZM373.738 45.9844C372.922 45.9844 372.13 45.8584 371.362 45.6064C370.606 45.3424 369.976 44.9764 369.472 44.5084L370.102 43.0684C371.206 43.9564 372.406 44.4004 373.702 44.4004C374.53 44.4004 375.178 44.1784 375.646 43.7344C376.114 43.2784 376.348 42.6844 376.348 41.9524C376.348 41.1964 376.126 40.5784 375.682 40.0984C375.238 39.6184 374.62 39.3784 373.828 39.3784C372.712 39.3784 371.818 39.8404 371.146 40.7644H369.85V33.1324H377.41V34.6984H371.668V38.7124C372.34 38.1244 373.192 37.8304 374.224 37.8304C375.028 37.8304 375.724 37.9984 376.312 38.3344C376.9 38.6704 377.356 39.1444 377.68 39.7564C378.004 40.3564 378.166 41.0584 378.166 41.8624C378.166 42.6784 377.986 43.3984 377.626 44.0224C377.266 44.6344 376.756 45.1144 376.096 45.4624C375.436 45.8104 374.65 45.9844 373.738 45.9844ZM384.261 46.2904L383.037 45.5704L390.471 32.6644L391.695 33.3844L384.261 46.2904ZM382.965 40.7284C381.981 40.7284 381.213 40.3864 380.661 39.7024C380.109 39.0064 379.833 38.0524 379.833 36.8404C379.833 35.6284 380.109 34.6804 380.661 33.9964C381.225 33.3124 381.993 32.9704 382.965 32.9704C383.937 32.9704 384.699 33.3124 385.251 33.9964C385.815 34.6804 386.097 35.6284 386.097 36.8404C386.097 38.0524 385.821 39.0064 385.269 39.7024C384.717 40.3864 383.949 40.7284 382.965 40.7284ZM382.965 39.4504C383.469 39.4504 383.859 39.2344 384.135 38.8024C384.423 38.3704 384.567 37.7164 384.567 36.8404C384.567 35.9644 384.423 35.3104 384.135 34.8784C383.859 34.4464 383.469 34.2304 382.965 34.2304C382.461 34.2304 382.065 34.4464 381.777 34.8784C381.501 35.3104 381.363 35.9644 381.363 36.8404C381.363 37.7284 381.501 38.3884 381.777 38.8204C382.065 39.2404 382.461 39.4504 382.965 39.4504ZM391.767 45.9844C390.795 45.9844 390.033 45.6424 389.481 44.9584C388.929 44.2744 388.653 43.3204 388.653 42.0964C388.653 40.8964 388.929 39.9544 389.481 39.2704C390.033 38.5744 390.795 38.2264 391.767 38.2264C392.751 38.2264 393.519 38.5744 394.071 39.2704C394.623 39.9544 394.899 40.8964 394.899 42.0964C394.899 43.3204 394.623 44.2744 394.071 44.9584C393.519 45.6424 392.751 45.9844 391.767 45.9844ZM391.767 44.7244C392.271 44.7244 392.661 44.5084 392.937 44.0764C393.225 43.6444 393.369 42.9844 393.369 42.0964C393.369 41.2324 393.225 40.5844 392.937 40.1524C392.661 39.7204 392.271 39.5044 391.767 39.5044C391.263 39.5044 390.867 39.7204 390.579 40.1524C390.303 40.5724 390.165 41.2204 390.165 42.0964C390.165 42.9844 390.303 43.6444 390.579 44.0764C390.867 44.5084 391.263 44.7244 391.767 44.7244Z" fill="#171717"/>
<path d="M22.7723 304.956V303.57L27.0023 299.034C27.5903 298.398 28.0103 297.822 28.2623 297.306C28.5263 296.79 28.6583 296.268 28.6583 295.74C28.6583 294.372 27.8543 293.688 26.2463 293.688C25.0223 293.688 23.9243 294.15 22.9523 295.074L22.2863 293.652C22.7663 293.184 23.3783 292.812 24.1223 292.536C24.8663 292.248 25.6403 292.104 26.4443 292.104C27.7523 292.104 28.7543 292.404 29.4503 293.004C30.1583 293.604 30.5123 294.462 30.5123 295.578C30.5123 296.334 30.3263 297.072 29.9543 297.792C29.5943 298.512 29.0243 299.28 28.2443 300.096L25.1123 303.39H31.0163V304.956H22.7723ZM37.6333 305.118C36.8173 305.118 36.0253 304.992 35.2573 304.74C34.5013 304.476 33.8713 304.11 33.3673 303.642L33.9973 302.202C35.1013 303.09 36.3013 303.534 37.5973 303.534C38.4253 303.534 39.0733 303.312 39.5413 302.868C40.0093 302.412 40.2433 301.818 40.2433 301.086C40.2433 300.33 40.0213 299.712 39.5773 299.232C39.1333 298.752 38.5153 298.512 37.7233 298.512C36.6073 298.512 35.7133 298.974 35.0413 299.898H33.7453V292.266H41.3053V293.832H35.5633V297.846C36.2353 297.258 37.0873 296.964 38.1193 296.964C38.9233 296.964 39.6193 297.132 40.2073 297.468C40.7953 297.804 41.2513 298.278 41.5753 298.89C41.8993 299.49 42.0613 300.192 42.0613 300.996C42.0613 301.812 41.8813 302.532 41.5213 303.156C41.1613 303.768 40.6513 304.248 39.9913 304.596C39.3313 304.944 38.5453 305.118 37.6333 305.118ZM48.1562 305.424L46.9322 304.704L54.3662 291.798L55.5902 292.518L48.1562 305.424ZM46.8602 299.862C45.8762 299.862 45.1082 299.52 44.5562 298.836C44.0042 298.14 43.7282 297.186 43.7282 295.974C43.7282 294.762 44.0042 293.814 44.5562 293.13C45.1202 292.446 45.8882 292.104 46.8602 292.104C47.8322 292.104 48.5942 292.446 49.1462 293.13C49.7102 293.814 49.9922 294.762 49.9922 295.974C49.9922 297.186 49.7162 298.14 49.1642 298.836C48.6122 299.52 47.8442 299.862 46.8602 299.862ZM46.8602 298.584C47.3642 298.584 47.7542 298.368 48.0302 297.936C48.3182 297.504 48.4622 296.85 48.4622 295.974C48.4622 295.098 48.3182 294.444 48.0302 294.012C47.7542 293.58 47.3642 293.364 46.8602 293.364C46.3562 293.364 45.9602 293.58 45.6722 294.012C45.3962 294.444 45.2582 295.098 45.2582 295.974C45.2582 296.862 45.3962 297.522 45.6722 297.954C45.9602 298.374 46.3562 298.584 46.8602 298.584ZM55.6622 305.118C54.6902 305.118 53.9282 304.776 53.3762 304.092C52.8242 303.408 52.5482 302.454 52.5482 301.23C52.5482 300.03 52.8242 299.088 53.3762 298.404C53.9282 297.708 54.6902 297.36 55.6622 297.36C56.6462 297.36 57.4142 297.708 57.9662 298.404C58.5182 299.088 58.7942 300.03 58.7942 301.23C58.7942 302.454 58.5182 303.408 57.9662 304.092C57.4142 304.776 56.6462 305.118 55.6622 305.118ZM55.6622 303.858C56.1662 303.858 56.5562 303.642 56.8322 303.21C57.1202 302.778 57.2642 302.118 57.2642 301.23C57.2642 300.366 57.1202 299.718 56.8322 299.286C56.5562 298.854 56.1662 298.638 55.6622 298.638C55.1582 298.638 54.7622 298.854 54.4742 299.286C54.1982 299.706 54.0602 300.354 54.0602 301.23C54.0602 302.118 54.1982 302.778 54.4742 303.21C54.7622 303.642 55.1582 303.858 55.6622 303.858Z" fill="#171717"/>
<path d="M340.772 316.956V315.57L345.002 311.034C345.59 310.398 346.01 309.822 346.262 309.306C346.526 308.79 346.658 308.268 346.658 307.74C346.658 306.372 345.854 305.688 344.246 305.688C343.022 305.688 341.924 306.15 340.952 307.074L340.286 305.652C340.766 305.184 341.378 304.812 342.122 304.536C342.866 304.248 343.64 304.104 344.444 304.104C345.752 304.104 346.754 304.404 347.45 305.004C348.158 305.604 348.512 306.462 348.512 307.578C348.512 308.334 348.326 309.072 347.954 309.792C347.594 310.512 347.024 311.28 346.244 312.096L343.112 315.39H349.016V316.956H340.772ZM355.633 317.118C354.817 317.118 354.025 316.992 353.257 316.74C352.501 316.476 351.871 316.11 351.367 315.642L351.997 314.202C353.101 315.09 354.301 315.534 355.597 315.534C356.425 315.534 357.073 315.312 357.541 314.868C358.009 314.412 358.243 313.818 358.243 313.086C358.243 312.33 358.021 311.712 357.577 311.232C357.133 310.752 356.515 310.512 355.723 310.512C354.607 310.512 353.713 310.974 353.041 311.898H351.745V304.266H359.305V305.832H353.563V309.846C354.235 309.258 355.087 308.964 356.119 308.964C356.923 308.964 357.619 309.132 358.207 309.468C358.795 309.804 359.251 310.278 359.575 310.89C359.899 311.49 360.061 312.192 360.061 312.996C360.061 313.812 359.881 314.532 359.521 315.156C359.161 315.768 358.651 316.248 357.991 316.596C357.331 316.944 356.545 317.118 355.633 317.118ZM366.156 317.424L364.932 316.704L372.366 303.798L373.59 304.518L366.156 317.424ZM364.86 311.862C363.876 311.862 363.108 311.52 362.556 310.836C362.004 310.14 361.728 309.186 361.728 307.974C361.728 306.762 362.004 305.814 362.556 305.13C363.12 304.446 363.888 304.104 364.86 304.104C365.832 304.104 366.594 304.446 367.146 305.13C367.71 305.814 367.992 306.762 367.992 307.974C367.992 309.186 367.716 310.14 367.164 310.836C366.612 311.52 365.844 311.862 364.86 311.862ZM364.86 310.584C365.364 310.584 365.754 310.368 366.03 309.936C366.318 309.504 366.462 308.85 366.462 307.974C366.462 307.098 366.318 306.444 366.03 306.012C365.754 305.58 365.364 305.364 364.86 305.364C364.356 305.364 363.96 305.58 363.672 306.012C363.396 306.444 363.258 307.098 363.258 307.974C363.258 308.862 363.396 309.522 363.672 309.954C363.96 310.374 364.356 310.584 364.86 310.584ZM373.662 317.118C372.69 317.118 371.928 316.776 371.376 316.092C370.824 315.408 370.548 314.454 370.548 313.23C370.548 312.03 370.824 311.088 371.376 310.404C371.928 309.708 372.69 309.36 373.662 309.36C374.646 309.36 375.414 309.708 375.966 310.404C376.518 311.088 376.794 312.03 376.794 313.23C376.794 314.454 376.518 315.408 375.966 316.092C375.414 316.776 374.646 317.118 373.662 317.118ZM373.662 315.858C374.166 315.858 374.556 315.642 374.832 315.21C375.12 314.778 375.264 314.118 375.264 313.23C375.264 312.366 375.12 311.718 374.832 311.286C374.556 310.854 374.166 310.638 373.662 310.638C373.158 310.638 372.762 310.854 372.474 311.286C372.198 311.706 372.06 312.354 372.06 313.23C372.06 314.118 372.198 314.778 372.474 315.21C372.762 315.642 373.158 315.858 373.662 315.858Z" fill="#171717"/>
<path d="M342.418 187.474C342.418 265.712 278.994 329.137 200.755 329.137C122.517 329.137 59.0928 265.712 59.0928 187.474C59.0928 109.236 122.517 45.8118 200.755 45.8118C278.994 45.8118 342.418 109.236 342.418 187.474ZM97.3417 187.474C97.3417 244.588 143.642 290.888 200.755 290.888C257.869 290.888 304.169 244.588 304.169 187.474C304.169 130.361 257.869 84.0607 200.755 84.0607C143.642 84.0607 97.3417 130.361 97.3417 187.474Z" fill="#F7C9FF"/>
<path d="M59.0928 187.474C59.0928 165.123 64.3818 143.088 74.5274 123.172C84.6731 103.256 99.3876 86.0227 117.468 72.8815L139.956 103.822C126.757 113.415 116.015 125.995 108.609 140.534C101.203 155.073 97.3417 171.158 97.3417 187.474H59.0928Z" fill="#90F928"/>
<path d="M200.755 329.137C163.184 329.137 127.152 314.212 100.585 287.645C74.018 261.078 59.0928 225.046 59.0928 187.475L97.3417 187.474C97.3417 214.901 108.237 241.205 127.631 260.599C147.025 279.993 173.328 290.888 200.755 290.888V329.137Z" fill="#9BB1FF"/>
<path d="M200.755 45.8118C238.327 45.8118 274.359 60.7369 300.926 87.3038C327.493 113.871 342.418 149.903 342.418 187.474C342.418 225.046 327.493 261.078 300.926 287.645C274.359 314.212 238.327 329.137 200.756 329.137V290.888C228.183 290.888 254.486 279.993 273.88 260.599C293.274 241.205 304.169 214.901 304.169 187.474C304.169 160.047 293.274 133.744 273.88 114.35C254.486 94.956 228.183 84.0607 200.755 84.0607V45.8118Z" fill="#9D28F9"/>
<path d="M200.755 45.8118C219.359 45.8118 237.78 49.476 254.967 56.5952C272.155 63.7144 287.772 74.1492 300.926 87.3038C314.081 100.458 324.516 116.075 331.635 133.262C338.754 150.45 342.418 168.871 342.418 187.474L304.169 187.474C304.169 173.894 301.494 160.446 296.297 147.9C291.1 135.353 283.483 123.953 273.88 114.35C264.277 104.747 252.877 97.1296 240.33 91.9326C227.784 86.7355 214.336 84.0607 200.755 84.0607V45.8118Z" fill="#FFD549"/>
<path d="M153.196 199.84V195.268H158.884V180.688L154.528 183.244L152.404 179.176L160.504 174.46H164.464V195.268H169.792V199.84H153.196ZM183.17 199.84V195.304H172.478V191.308L184.106 174.46H188.642V190.912H192.098V195.304H188.642V199.84H183.17ZM183.17 190.912V182.632L177.554 190.912H183.17ZM203.568 200.236C200.496 200.236 198.144 199.096 196.512 196.816C194.904 194.536 194.1 191.284 194.1 187.06C194.1 182.836 194.904 179.62 196.512 177.412C198.144 175.18 200.496 174.064 203.568 174.064C206.64 174.064 208.98 175.18 210.588 177.412C212.22 179.62 213.036 182.836 213.036 187.06C213.036 191.284 212.22 194.536 210.588 196.816C208.98 199.096 206.64 200.236 203.568 200.236ZM203.568 195.7C204.96 195.7 205.992 195.016 206.664 193.648C207.336 192.256 207.672 190.06 207.672 187.06C207.672 184.06 207.336 181.9 206.664 180.58C205.992 179.26 204.96 178.6 203.568 178.6C202.176 178.6 201.144 179.26 200.472 180.58C199.8 181.9 199.464 184.06 199.464 187.06C199.464 190.06 199.8 192.256 200.472 193.648C201.144 195.016 202.176 195.7 203.568 195.7ZM226.929 199.84V174.46H238.557C241.269 174.46 243.357 175.048 244.821 176.224C246.309 177.4 247.053 179.008 247.053 181.048C247.053 182.392 246.717 183.556 246.045 184.54C245.373 185.5 244.437 186.22 243.237 186.7C244.677 187.108 245.781 187.828 246.549 188.86C247.341 189.892 247.737 191.164 247.737 192.676C247.737 194.932 246.945 196.696 245.361 197.968C243.801 199.216 241.665 199.84 238.953 199.84H226.929ZM232.257 184.9H237.585C240.321 184.9 241.689 183.844 241.689 181.732C241.689 179.644 240.321 178.6 237.585 178.6H232.257V184.9ZM232.257 195.7H238.197C239.637 195.7 240.693 195.424 241.365 194.872C242.037 194.32 242.373 193.48 242.373 192.352C242.373 191.248 242.037 190.42 241.365 189.868C240.693 189.316 239.637 189.04 238.197 189.04H232.257V195.7Z" fill="black"/>
</svg>
